<?xml version="1.0" encoding="utf-8"?>
<!-- Generator: Adobe Illustrator 16.0.0, SVG Export Plug-In . SVG Version: 6.00 Build 0)  -->
<!DOCTYPE svg PUBLIC "-//W3C//DTD SVG 1.1//EN" "http://www.w3.org/Graphics/SVG/1.1/DTD/svg11.dtd">
<svg version="1.1" id="Layer_1" xmlns="http://www.w3.org/2000/svg" xmlns:xlink="http://www.w3.org/1999/xlink" x="0px" y="0px"
	 width="920px" height="1280px" viewBox="180 0 920 1280" enable-background="new 180 0 920 1280" xml:space="preserve">
<g>
	<path fill-rule="evenodd" clip-rule="evenodd" fill="#FF1B21" d="M1100.858,1281.342c-236.073,0-472.147,0-708.22,0
		c1.208-4.221,2.232-8.508,3.692-12.64c0.96-2.717,1.875-5.324,1.685-8.267c-0.07-1.088,0.232-2.299,0.69-3.306
		c2.584-5.687,5.415-11.268,6.603-17.487c0.183-0.961,0.729-1.849,1.088-2.779c1.991-5.164,3.978-10.33,5.956-15.5
		c0.1-0.262,0.139-0.561,0.141-0.842c0.02-3.763,2.063-6.747,3.721-9.898c0.641-1.217,1.048-2.57,1.449-3.896
		c1.432-4.734,2.651-9.54,4.266-14.21c1.524-4.408,3.485-8.665,5.184-13.015c1.962-5.025,3.886-10.065,5.752-15.127
		c1.468-3.982,2.632-8.087,4.273-11.993c2.559-6.092,5.45-12.043,8.112-18.093c0.967-2.198,1.634-4.526,2.525-6.761
		c1.47-3.681,3.049-7.318,4.495-11.009c0.356-0.909,0.371-1.951,0.552-2.93c0.644-3.492,1.291-6.983,1.938-10.475
		c0.208-1.118,0.448-2.23,0.628-3.353c0.857-5.332,1.246-10.79,2.666-15.967c1.639-5.974,2.358-11.933,2.592-18.085
		c0.177-4.665,0.902-9.373,1.983-13.92c1.043-4.385,2.885-8.577,4.306-12.877c0.308-0.93,0.334-1.957,0.461-2.942
		c0.472-3.665,0.804-7.354,1.422-10.994c1.381-8.144,3.104-16.245,2.849-24.568c-0.065-2.123-0.99-4.351-0.573-6.33
		c0.913-4.323,0.209-8.465-0.162-12.73c-0.64-7.351-1.866-14.594-3.223-21.819c-1.287-6.854-2.696-13.689-4.261-20.485
		c-1.754-7.617-1.695-15.003,2.179-22.002c1.861-3.363,3.871-6.647,5.922-9.899c4.173-6.615,8.451-13.164,12.625-19.778
		c2.878-4.563,5.476-9.312,8.515-13.761c5.854-8.569,11.954-16.971,17.892-25.484c0.803-1.15,1.563-2.498,1.779-3.845
		c0.204-1.272,0.093-2.978-0.618-3.953c-5.538-7.594-11.178-15.077-17.933-21.725c-4.956-4.876-9.395-10.321-12.279-16.854
		c-1.897-4.295-4.162-8.433-6.353-12.593c-0.434-0.824-1.313-2.063-1.93-2.031c-3.038,0.163-5.353-3.021-8.589-1.727
		c-0.414,0.166-1.089-0.216-1.606-0.433c-3.572-1.5-7.207-2.256-10.407-1.049c-4.984-3.011-9.518-5.763-14.073-8.479
		c-0.477-0.284-1.083-0.515-1.623-0.502c-3.324,0.078-5.97-1.713-8.812-3.015c-1.266-0.58-2.701-1.253-4.017-1.174
		c-2.956,0.178-5.884,0.799-7.761,1.08c-2.59-0.903-4.392-2.181-5.865-1.876c-1.697,0.353-3.103,2.103-4.101,2.848
		c-4.197-0.208-7.975-0.581-11.746-0.529c-3.833,0.052-7.67,0.431-11.484,0.854c-1.499,0.167-3.116,0.569-4.365,1.36
		c-1.497,0.946-2.774,1.399-4.313,0.382c-1.915-1.264-3.771-1.104-5.575,0.213c-2.045,1.491-4.021,1.203-6.436,0.592
		c-2.956-0.747-6.12-3.541-9.321-0.314c-0.193,0.195-0.872,0.086-1.228-0.085c-3.968-1.898-8.239-3.39-11.753-5.928
		c-2.191-1.583-4.26-2.888-6.804-3.023c-2.448-0.13-3.766-1.385-5.25-3.094c-2.299-2.646-5.001-4.943-7.812-7.659
		c-0.714-1.415-1.546-3.371-2.644-5.164c-1.469-2.396-2.846-4.968-4.807-6.916c-2.504-2.489-0.938-5.813-2.41-8.4
		c-0.349-0.613-0.651-1.286-0.81-1.97c-0.866-3.723-2.375-7.472-2.298-11.184c0.064-3.052-0.222-5.88-0.833-8.799
		c-0.317-1.514-0.558-3.212-0.193-4.665c0.802-3.194,1.456-6.512,5.374-7.834c2.773-0.936,6.185-7.498,5.453-10.436
		c-0.667-2.676-0.335-4.96,0.68-7.441c0.914-2.237,0.739-4.763-1.512-6.151c-2.252-1.389-3.397-3.718-5.149-5.275
		c-3.824-3.4-4.203-8.72-7.777-12.062c-1.901-6.374-4.778-12.636-2.201-19.516c0.816-2.18-0.114-3.42-2.075-4.431
		c-2.382-1.228-4.599-2.771-6.905-4.149c-4.885-2.919-9.896-3.149-14.952-0.509c-1.469,0.767-2.732,1.707-3.752-0.557
		c-0.206-0.456-1.071-0.881-1.623-0.87c-2.665,0.056-4.185-1.891-4.667-3.766c-0.907-3.528-3.295-5.147-6.803-6.604
		c0.496-2.771,1.012-5.517,1.468-8.272c0.183-1.102,0.281-2.222,0.335-3.338c0.054-1.118-0.26-2.318,0.043-3.348
		c1.975-6.694,3.999-13.376,6.161-20.011c1.201-3.685,0.486-5.471-3.396-6.013c-2.938-0.41-6.034-0.528-8.951-0.079
		c-9.104,1.403-17.78,0.512-26.397-2.933c-10.484-4.192-16.302-16.575-13.688-26.597c2.104-8.069,4.641-16.057,8.768-23.483
		c4.265-7.675,7.877-15.71,11.888-23.53c4.932-9.616,9.916-19.207,15.005-28.74c2.544-4.766,5.222-9.475,8.112-14.038
		c3.529-5.571,5.005-11.644,5.319-18.123c0.115-2.385-0.878-4.034-2.703-5.479c-1.43-1.132-2.655-2.541-3.888-3.902
		c-3.821-4.218-7.361-8.717-12.169-11.928c-0.816-0.545-1.608-1.127-1.852-1.299c0.679-3.747,1.493-6.64,1.646-9.569
		c0.132-2.528,0.526-4.775,2.13-6.769c1.237-1.539,1.238-3.269,1.164-5.23c-0.224-5.952-0.094-11.919-0.056-17.88
		c0.021-2.993,0.418-6.01,0.15-8.971c-0.351-3.888-3.381-6.052-6.393-4.666c-4.763,2.193-9.393,1.518-13.479-1.039
		c-3.718-2.326-6.825-2.778-10.637-0.428c-2.567,1.583-4.418,0.192-4.346-2.87c0.044-1.848,0.378-3.689,0.425-5.538
		c0.062-2.435-0.806-4.338-3.055-5.693c-2.185-1.317-4.438-2.747-6.124-4.612c-2.466-2.731-5.253-5.613-6.432-8.95
		c-1.325-3.752-2.264-7.573-4.471-10.98c-0.665-1.026-0.862-2.417-1.054-3.675c-0.37-2.422-1.52-4.435-3.569-5.579
		c-1.996-1.113-2.736-2.807-3.29-4.75c-0.82-2.875-1.387-5.842-2.455-8.62c-0.862-2.245-0.93-4.29-0.561-6.648
		c0.659-4.202,1.563-8.596,0.938-12.692c-0.481-3.151-1.159-6.351-1.672-9.557c-0.796-4.989-0.601-9.87,0.104-14.872
		c0.701-4.974,4.378-9.559,2.117-14.145c2.406-2.732,4.472-4.981,6.424-7.325c1.644-1.972,3.149-4.059,4.729-6.085
		c1.013-1.299,1.817-2.939,3.129-3.784c2.054-1.321,2.033-2.952,0.764-4.266c-3.274-3.392-2.757-7.251-1.87-11.192
		c0.495-2.194-0.112-3.989-1.529-5.524c-2.762-2.99-2.867-6.295-1.677-9.973c1.044-3.226,2.172-6.497,2.594-9.833
		c0.622-4.928,0.646-9.931,0.934-14.902c0.082-1.418-0.307-3.179,0.385-4.19c2.429-3.549,3.94-7.45,5.28-11.463
		c0.044-0.131,0.168-0.234,0.222-0.365c0.813-1.958,1.994-3.851,2.361-5.89c1.174-6.541,4.567-11.867,8.777-16.732
		c1.157-1.337,2.875-2.698,4.523-2.991c2.986-0.532,4.733-1.972,6.266-4.502c1.975-3.26,5.64-4.405,8.497-3.152
		c3.374,1.479,6.973,2.648,10.007,4.656c6.406,4.239,14.063,5.158,20.828,8.459c4.574,2.232,6.343,0.99,7.832-3.889
		c0.581-1.903,0.872-3.894,1.327-5.837c0.257-1.096,0.369-2.293,0.905-3.243c2.858-5.067,4.936-10.64,9.082-14.893
		c3.679-3.774,7.276-7.697,11.369-10.98c3.85-3.088,8.524-5.135,12.439-8.155c7.541-5.817,16.323-9.25,24.663-13.533
		c2.622-1.347,5.668-2.04,8.002-3.743c6.272-4.577,13.461-6.685,20.827-8.234c3.649-0.768,7.284-1.171,10.437-3.427
		c0.875-0.626,2.14-0.692,3.214-1.054c4.135-1.392,8.795-0.904,12.603-3.609c0.567-0.403,1.824,0.21,2.768,0.281
		c2.084,0.157,4.358,0.863,6.221,0.28c4.662-1.458,9.184-1.371,13.929-0.621c4.681,0.74,8.976,0.563,12.833-3.636
		c3.68-4.008,8.669-6.356,14.665-6.62c3.397-0.149,7.435,0.764,10.429-2.252c0.375-0.378,1.373-0.128,2.08-0.19
		c1.678-0.146,3.356-0.306,5.243-0.479c0.326-1.635,0.652-3.153,0.927-4.679c0.49-2.73,1.357-3.376,4-3.196
		c1.517,0.103,3.05-0.068,4.574-0.035c0.969,0.021,2.347-0.185,2.833,0.352c3.043,3.366,7.497,1.811,11.119,3.267
		c1.687,0.678,4.261-0.536,6.437,0.408c0.339,0.147,1.081-0.323,1.479-0.681c2.274-2.042,5.02-2.415,7.93-2.701
		c1.6-0.158,3.773-0.792,4.534-1.962c2.273-3.497,4.96-3.233,8.157-1.893c1.763,0.739,3.331,0.239,4.739-1.009
		c1.574-1.394,3.674-2.443,4.702-4.149c1.561-2.593,4.449-4.263,4.786-7.782c0.371-3.877,2.491-5.125,6.338-6.41
		c8.356-2.791,16.699-0.688,25.039-0.436c1.768,0.054,3.593,0.913,5.244,1.709c6.298,3.042,12.198,6.687,17.438,11.401
		c2.768,2.49,5.693,4.459,10.031,3.171c2.407-0.715,5.343-0.906,7.893,0.676c2.757,1.711,5.626,3.242,8.406,4.917
		c0.587,0.353,1.107,0.924,1.477,1.51c1.142,1.809,2.515,3.56,3.221,5.539c1.646,4.612,4.716,6.767,9.505,5.934
		c4.001-0.696,7.205,0.604,10.15,3.082c0.435,0.367,0.999,0.597,1.389,1c4.857,5.015,11.313,3.998,17.257,4.164
		c2.289,0.064,3.975,0.162,5.748,1.632c5.265,4.361,11.196,7.015,18.198,7.376c8.078,0.417,15.833-1.495,23.659-2.81
		c3.034-0.51,5.823-2.339,8.841-3.115c4.542-1.167,9.151-2.218,13.796-2.798c4.646-0.58,9.369-0.561,14.063-0.7
		c0.795-0.024,1.753,0.289,2.385,0.772c2.772,2.123,5.953,2.521,9.291,2.621c2.674,0.081,5.473,0.025,6.747,3.263
		c0.273,0.695,1.264,1.103,1.915,1.653c4.023,3.403,8.167,6.676,12.032,10.251c4.181,3.868,8.09,8.028,12.142,12.036
		c0.602,0.594,1.271,1.193,2.024,1.545c2.16,1.008,4.376,1.898,6.576,2.819c5.188,2.171,9.122,7.939,9.122,13.566
		c0,2.189,0.361,4.087,1.632,6.032c1.013,1.551,1.636,3.755,1.469,5.581c-0.232,2.55,0.194,4.773,1.171,7.031
		c0.444,1.029,1.064,2.154,1.001,3.198c-0.204,3.333,0.058,6.288,3.583,7.913c0.405,0.188,0.682,0.921,0.787,1.447
		c0.668,3.33,3.137,5.26,5.372,7.501c2.179,2.186,5.525,3.995,4.199,8.148c-0.167,0.521,0.276,1.456,0.727,1.916
		c1.952,1.998,3.142,4.741,6.221,5.683c1.123,0.344,2.097,1.828,2.73,3.011c3.581,6.686,9.435,11.303,14.734,16.423
		c0.388,0.375,0.993,0.579,1.534,0.729c3.831,1.056,6.263,3.794,8.474,6.861c0.821,1.141,1.695,2.387,2.842,3.126
		c4.748,3.065,5.841,7.529,5.04,12.682c-0.457,2.945-1.338,5.823-1.889,8.757c-0.199,1.061-0.362,2.39,0.094,3.265
		c1.43,2.738,3.201,5.295,4.749,7.975c0.406,0.703,0.711,1.61,0.665,2.401c-0.183,3.089,1.337,5.279,3.066,7.699
		c3.341,4.674,7.59,8.892,8.467,15.062c0.15,1.058,1.741,2.198,2.924,2.753c1.768,0.831,2.978,1.897,4.014,3.592
		c0.811,1.328,2.416,2.95,3.755,3.031c4.108,0.249,6.005,2.784,7.472,5.902c4.622,1.386,9.105,2.72,13.581,4.084
		c0.536,0.164,1.171,0.37,1.5,0.771c0.603,0.733,1.56,1.75,1.405,2.432c-0.76,3.378,0.123,7.118-2.562,10.112
		c-2.229,2.485-2.024,4.097-0.289,6.95c0.866,1.426,2.094,3.084,1.998,4.563c-0.343,5.326,0.871,10.394,1.972,15.483
		c0.231,1.07,1.229,2.713,2.005,2.791c2.737,0.276,5.483,1.32,8.33-0.285c2.479-1.398,5.348-1.701,8.504-0.458
		c-0.259,1.631-0.708,3.148-0.682,4.657c0.026,1.476,0.022,3.59,0.921,4.305c4.84,3.847,5.593,9.598,6.311,14.801
		c1.359,9.848-1.171,18.897-8.535,26.236c-2.316,2.309-4.064,5.042-2.005,8.747c0.753,1.355,0.212,3.376,0.537,5.039
		c0.289,1.474,0.541,3.365,1.539,4.215c3.2,2.727,4.241,6.104,4.704,10.115c0.502,4.355-0.672,7.783-3.751,10.766
		c-3.167,3.069-6.112,6.161-7.529,10.667c-0.817,2.598-0.828,4.181,1.088,6.032c3.314,3.201,3.096,6.93-0.387,9.819
		c-3.896,3.231-4.169,4.282-2.691,9.209c0.693,2.312,1.457,4.641,1.78,7.018c0.707,5.208,1.089,10.414,0.113,15.693
		c-0.825,4.461-1.027,9.035-1.632,13.541c-0.526,3.935-1.173,7.857-1.875,11.765c-0.5,2.784-0.899,5.637-1.853,8.276
		c-1.152,3.189-2.993,6.124-4.251,9.282c-1.044,2.62-1.562,5.447-2.521,8.106c-1.153,3.196-2.186,6.52-3.928,9.39
		c-1.16,1.91-2.227,3.582-2.007,5.848c0.206,2.118-0.382,4.04-1.871,5.503c-2.71,2.662-3.176,5.766-2.666,9.381
		c0.218,1.544-0.05,3.634-0.968,4.772c-2.636,3.268-3.438,6.812-2.763,10.791c0.361,2.133,0.024,4.14-1.49,5.566
		c-2.79,2.626-3.258,5.808-3.146,9.383c0.113,3.56,0.59,7.338-0.38,10.644c-1.202,4.098-1.517,8.083-1.286,12.219
		c0.116,2.092-0.443,3.833-1.734,5.55c-1.088,1.446-1.804,3.229-2.422,4.956c-1.147,3.211-1.778,6.646-3.227,9.701
		c-1.616,3.41-2.773,7.137-5.934,9.748c-1.203,0.995-1.842,2.872-2.34,4.471c-0.736,2.362-1.938,3.782-4.407,4.698
		c-2.32,0.859-4.645,2.388-6.281,4.231c-1.835,2.065-3.877,3.447-6.428,3.896c-3.308,0.583-5.612,2.481-7.951,4.681
		c-3.417,3.214-6.884,6.461-10.729,9.114c-5.973,4.117-12.83,6.585-19.519,9.317c-1.052,0.43-2.063,0.956-3.119,1.376
		c-2.092,0.833-4.14,1.948-6.315,2.359c-3.835,0.723-7.614,2.117-11.695,1.076c-1.241-0.317-2.798,0.343-4.145,0.766
		c-1.936,0.608-2.956,1.964-3.239,4.074c-0.531,3.961-0.679,7.887,0.043,11.835c0.448,2.453,1.441,3.391,3.884,3.8
		c3.646,0.611,7.298,1.224,10.899,2.042c3.632,0.824,6.178,3.095,8.455,6.096c4.258,5.609,4.447,12.529,6.631,18.786
		c1.53,4.385,1.974,9.136,3.266,13.617c2.325,8.058,4.975,16.021,7.395,24.052c2.961,9.828,5.777,19.699,8.747,29.524
		c2.017,6.673,4.215,13.291,6.273,19.951c0.46,1.485,1.058,3.075,0.937,4.563c-0.29,3.565,1.229,5.773,4,7.891
		c5.13,3.92,9.668,8.572,11.862,14.818c2.014,5.732,4.777,10.941,8.531,15.709c2.467,3.133,4.522,6.586,6.945,9.756
		c2.848,3.724,5.803,7.374,8.876,10.913c4.573,5.269,9.114,10.585,14.001,15.556c4.298,4.371,8.803,8.525,12.461,13.48
		c0.249,0.338,0.645,0.563,0.948,0.864c4.836,4.806,9.688,9.595,14.495,14.43c4.612,4.641,9.174,9.332,13.763,13.996
		c3.006,3.054,6.228,5.923,8.993,9.181c6.469,7.62,13.223,14.907,20.825,21.45c9.605,8.266,19.184,16.644,24.655,28.524
		c0.176,0.383,0.473,0.713,0.729,1.056c7.604,10.146,15.288,20.231,22.786,30.455c5.058,6.896,9.864,13.975,14.744,20.999
		c0.473,0.681,0.603,1.59,1.008,2.328c1.222,2.226,2.444,4.454,3.769,6.619c2.985,4.881,5.936,9.701,5.651,15.811
		c-0.225,4.835-0.046,9.688-0.046,14.164c2.139,1.362,4.133,2.271,5.663,3.681c3.568,3.292,6.943,6.797,10.327,10.282
		c0.769,0.792,1.647,1.797,1.806,2.809c0.768,4.91,1.307,9.855,1.926,14.789c0.175,1.4-0.02,2.988,0.584,4.169
		c2.253,4.399,4.785,8.656,7.162,12.993c0.399,0.729,0.577,1.585,0.808,2.396c1.298,4.563,0.922,9.689,4.597,13.46
		c0.351,0.36,0.408,1.052,0.506,1.606c0.943,5.316,1.797,10.648,2.832,15.946c0.351,1.796,1.208,3.487,1.715,5.261
		c0.575,2.013,1.168,4.041,1.473,6.104c0.289,1.961-0.278,4.162,0.391,5.934c2.356,6.237,4.837,12.455,7.749,18.448
		c2.105,4.333,3.535,8.852,3.75,13.497c0.208,4.478,1.414,8.425,3.738,12.028c1.964,3.046,2.548,6.195,2.488,9.729
		c-0.047,2.813-0.092,5.882,0.94,8.395c1.25,3.039,1.658,5.979,1.58,9.137c-0.04,1.567,0.014,3.143,0.126,4.707
		c0.449,6.244,1.111,12.479,1.361,18.729C1101.049,1269.616,1100.86,1275.482,1100.858,1281.342z"/>
	<path fill-rule="evenodd" clip-rule="evenodd" fill="none" d="M1100.858,1281.342c0.002-5.859,0.19-11.726-0.043-17.575
		c-0.25-6.251-0.912-12.485-1.361-18.729c-0.112-1.564-0.166-3.14-0.126-4.707c0.078-3.157-0.33-6.098-1.58-9.137
		c-1.032-2.513-0.987-5.581-0.94-8.395c0.06-3.533-0.524-6.683-2.488-9.729c-2.324-3.604-3.53-7.551-3.738-12.028
		c-0.215-4.646-1.645-9.164-3.75-13.497c-2.912-5.993-5.393-12.211-7.749-18.448c-0.669-1.771-0.102-3.973-0.391-5.934
		c-0.305-2.063-0.897-4.092-1.473-6.104c-0.507-1.773-1.364-3.465-1.715-5.261c-1.035-5.298-1.889-10.63-2.832-15.946
		c-0.098-0.555-0.155-1.246-0.506-1.606c-3.675-3.771-3.299-8.897-4.597-13.46c-0.23-0.811-0.408-1.667-0.808-2.396
		c-2.377-4.337-4.909-8.594-7.162-12.993c-0.604-1.181-0.409-2.769-0.584-4.169c-0.619-4.934-1.158-9.879-1.926-14.789
		c-0.158-1.012-1.037-2.017-1.806-2.809c-3.384-3.485-6.759-6.99-10.327-10.282c-1.53-1.41-3.524-2.318-5.663-3.681
		c0-4.476-0.179-9.329,0.046-14.164c0.284-6.109-2.666-10.93-5.651-15.811c-1.324-2.165-2.547-4.394-3.769-6.619
		c-0.405-0.738-0.535-1.647-1.008-2.328c-4.88-7.024-9.687-14.104-14.744-20.999c-7.498-10.224-15.183-20.309-22.786-30.455
		c-0.257-0.343-0.554-0.673-0.729-1.056c-5.472-11.881-15.05-20.259-24.655-28.524c-7.603-6.543-14.356-13.83-20.825-21.45
		c-2.766-3.258-5.987-6.127-8.993-9.181c-4.589-4.664-9.15-9.355-13.763-13.996c-4.807-4.835-9.659-9.624-14.495-14.43
		c-0.304-0.302-0.699-0.526-0.948-0.864c-3.658-4.955-8.163-9.109-12.461-13.48c-4.887-4.971-9.428-10.287-14.001-15.556
		c-3.073-3.539-6.028-7.189-8.876-10.913c-2.423-3.17-4.479-6.623-6.945-9.756c-3.754-4.768-6.518-9.977-8.531-15.709
		c-2.194-6.246-6.732-10.898-11.862-14.818c-2.771-2.117-4.29-4.325-4-7.891c0.121-1.488-0.477-3.078-0.937-4.563
		c-2.059-6.66-4.257-13.278-6.273-19.951c-2.97-9.825-5.786-19.696-8.747-29.524c-2.42-8.03-5.069-15.994-7.395-24.052
		c-1.292-4.481-1.735-9.232-3.266-13.617c-2.184-6.257-2.373-13.177-6.631-18.786c-2.277-3.001-4.823-5.271-8.455-6.096
		c-3.602-0.818-7.254-1.431-10.899-2.042c-2.442-0.409-3.436-1.347-3.884-3.8c-0.722-3.948-0.574-7.874-0.043-11.835
		c0.283-2.11,1.304-3.466,3.239-4.074c1.347-0.423,2.903-1.083,4.145-0.766c4.081,1.041,7.86-0.354,11.695-1.076
		c2.176-0.411,4.224-1.526,6.315-2.359c1.056-0.42,2.067-0.946,3.119-1.376c6.688-2.732,13.546-5.2,19.519-9.317
		c3.846-2.652,7.313-5.899,10.729-9.114c2.339-2.2,4.644-4.098,7.951-4.681c2.551-0.449,4.593-1.832,6.428-3.896
		c1.637-1.843,3.961-3.372,6.281-4.231c2.47-0.916,3.671-2.336,4.407-4.698c0.498-1.599,1.137-3.476,2.34-4.471
		c3.16-2.611,4.317-6.338,5.934-9.748c1.448-3.056,2.079-6.49,3.227-9.701c0.618-1.727,1.334-3.51,2.422-4.956
		c1.291-1.718,1.851-3.458,1.734-5.55c-0.23-4.136,0.084-8.121,1.286-12.219c0.97-3.306,0.493-7.084,0.38-10.644
		c-0.112-3.575,0.355-6.757,3.146-9.383c1.515-1.426,1.852-3.433,1.49-5.566c-0.675-3.979,0.127-7.523,2.763-10.791
		c0.918-1.138,1.186-3.228,0.968-4.772c-0.51-3.616-0.044-6.72,2.666-9.381c1.489-1.463,2.077-3.385,1.871-5.503
		c-0.22-2.266,0.847-3.938,2.007-5.848c1.742-2.87,2.774-6.194,3.928-9.39c0.959-2.66,1.477-5.486,2.521-8.106
		c1.258-3.158,3.099-6.093,4.251-9.282c0.953-2.639,1.353-5.492,1.853-8.276c0.702-3.908,1.349-7.83,1.875-11.765
		c0.604-4.506,0.807-9.08,1.632-13.541c0.976-5.279,0.594-10.485-0.113-15.693c-0.323-2.377-1.087-4.706-1.78-7.018
		c-1.478-4.927-1.204-5.978,2.691-9.209c3.482-2.889,3.701-6.618,0.387-9.819c-1.916-1.851-1.905-3.434-1.088-6.032
		c1.417-4.506,4.362-7.598,7.529-10.667c3.079-2.983,4.253-6.411,3.751-10.766c-0.463-4.011-1.504-7.389-4.704-10.115
		c-0.998-0.85-1.25-2.741-1.539-4.215c-0.325-1.663,0.216-3.684-0.537-5.039c-2.06-3.706-0.312-6.438,2.005-8.747
		c7.364-7.339,9.895-16.388,8.535-26.236c-0.718-5.203-1.471-10.954-6.311-14.801c-0.898-0.715-0.895-2.829-0.921-4.305
		c-0.026-1.509,0.423-3.026,0.682-4.657c-3.156-1.243-6.024-0.941-8.504,0.458c-2.847,1.604-5.593,0.561-8.33,0.285
		c-0.776-0.078-1.773-1.721-2.005-2.791c-1.101-5.09-2.314-10.157-1.972-15.483c0.096-1.479-1.132-3.136-1.998-4.563
		c-1.735-2.854-1.94-4.465,0.289-6.95c2.685-2.994,1.802-6.733,2.562-10.112c0.154-0.682-0.803-1.699-1.405-2.432
		c-0.329-0.401-0.964-0.607-1.5-0.771c-4.476-1.365-8.959-2.699-13.581-4.084c-1.467-3.118-3.363-5.653-7.472-5.902
		c-1.339-0.081-2.944-1.703-3.755-3.031c-1.036-1.695-2.246-2.762-4.014-3.592c-1.183-0.555-2.773-1.695-2.924-2.753
		c-0.877-6.169-5.126-10.387-8.467-15.062c-1.729-2.42-3.249-4.609-3.066-7.699c0.046-0.791-0.259-1.698-0.665-2.401
		c-1.548-2.68-3.319-5.237-4.749-7.975c-0.456-0.875-0.293-2.204-0.094-3.265c0.551-2.934,1.432-5.812,1.889-8.757
		c0.801-5.153-0.292-9.617-5.04-12.682c-1.146-0.74-2.021-1.985-2.842-3.126c-2.211-3.067-4.643-5.805-8.474-6.861
		c-0.541-0.149-1.146-0.354-1.534-0.729c-5.3-5.12-11.153-9.737-14.734-16.423c-0.634-1.183-1.607-2.667-2.73-3.011
		c-3.079-0.942-4.269-3.685-6.221-5.683c-0.45-0.46-0.894-1.396-0.727-1.916c1.326-4.153-2.021-5.962-4.199-8.148
		c-2.235-2.241-4.704-4.171-5.372-7.501c-0.105-0.526-0.382-1.26-0.787-1.447c-3.525-1.625-3.787-4.58-3.583-7.913
		c0.063-1.044-0.557-2.169-1.001-3.198c-0.977-2.258-1.403-4.481-1.171-7.031c0.167-1.826-0.456-4.03-1.469-5.581
		c-1.271-1.945-1.632-3.843-1.632-6.032c0-5.627-3.935-11.396-9.122-13.566c-2.2-0.921-4.416-1.811-6.576-2.819
		c-0.753-0.352-1.423-0.951-2.024-1.545c-4.052-4.008-7.961-8.168-12.142-12.036c-3.865-3.575-8.009-6.848-12.032-10.251
		c-0.651-0.551-1.642-0.958-1.915-1.653c-1.274-3.238-4.073-3.183-6.747-3.263c-3.338-0.101-6.519-0.499-9.291-2.621
		c-0.632-0.484-1.59-0.796-2.385-0.772c-4.693,0.139-9.417,0.121-14.063,0.7c-4.645,0.58-9.254,1.63-13.796,2.798
		c-3.018,0.776-5.807,2.605-8.841,3.115c-7.826,1.315-15.581,3.227-23.659,2.81c-7.002-0.361-12.934-3.015-18.198-7.376
		c-1.773-1.47-3.459-1.568-5.748-1.632c-5.944-0.166-12.4,0.852-17.257-4.164c-0.391-0.403-0.954-0.633-1.389-1
		c-2.945-2.479-6.149-3.778-10.15-3.082c-4.789,0.833-7.859-1.322-9.505-5.934c-0.706-1.979-2.079-3.73-3.221-5.539
		c-0.37-0.585-0.89-1.157-1.477-1.51c-2.78-1.675-5.649-3.206-8.406-4.917c-2.55-1.582-5.486-1.391-7.893-0.676
		c-4.338,1.288-7.263-0.682-10.031-3.171c-5.24-4.714-11.14-8.359-17.438-11.401c-1.65-0.796-3.476-1.656-5.244-1.709
		c-8.339-0.252-16.683-2.354-25.039,0.436c-3.848,1.285-5.967,2.533-6.338,6.41c-0.336,3.519-3.225,5.189-4.786,7.782
		c-1.028,1.707-3.127,2.755-4.702,4.149c-1.409,1.248-2.977,1.748-4.739,1.009c-3.196-1.34-5.883-1.604-8.157,1.893
		c-0.76,1.17-2.934,1.805-4.534,1.962c-2.91,0.286-5.655,0.659-7.93,2.701c-0.399,0.358-1.141,0.828-1.479,0.681
		c-2.176-0.944-4.75,0.27-6.437-0.408c-3.622-1.456-8.076,0.1-11.119-3.267c-0.486-0.537-1.864-0.331-2.833-0.352
		c-1.524-0.033-3.057,0.138-4.574,0.035c-2.644-0.18-3.511,0.466-4,3.196c-0.274,1.526-0.601,3.044-0.927,4.679
		c-1.887,0.173-3.565,0.333-5.243,0.479c-0.708,0.062-1.705-0.188-2.08,0.19c-2.994,3.016-7.032,2.103-10.429,2.252
		c-5.996,0.263-10.985,2.612-14.665,6.62c-3.856,4.2-8.151,4.376-12.833,3.636c-4.745-0.75-9.267-0.837-13.929,0.621
		c-1.863,0.583-4.137-0.123-6.221-0.28c-0.943-0.071-2.2-0.685-2.768-0.281c-3.808,2.706-8.467,2.217-12.603,3.609
		c-1.074,0.362-2.339,0.428-3.214,1.054c-3.153,2.255-6.788,2.659-10.437,3.427c-7.366,1.549-14.554,3.657-20.827,8.234
		c-2.334,1.703-5.38,2.396-8.002,3.743c-8.34,4.283-17.123,7.716-24.663,13.533c-3.915,3.02-8.589,5.067-12.439,8.155
		c-4.093,3.283-7.69,7.206-11.369,10.98c-4.146,4.253-6.224,9.825-9.082,14.893c-0.536,0.95-0.648,2.147-0.905,3.243
		c-0.455,1.943-0.746,3.934-1.327,5.837c-1.489,4.879-3.257,6.121-7.832,3.889c-6.764-3.302-14.422-4.22-20.828-8.459
		c-3.035-2.008-6.633-3.177-10.007-4.656c-2.856-1.252-6.522-0.107-8.497,3.152c-1.532,2.531-3.28,3.97-6.266,4.502
		c-1.649,0.293-3.366,1.654-4.523,2.991c-4.21,4.866-7.603,10.191-8.777,16.732c-0.367,2.039-1.547,3.932-2.361,5.89
		c-0.054,0.13-0.178,0.233-0.222,0.365c-1.34,4.013-2.851,7.914-5.28,11.463c-0.692,1.011-0.303,2.771-0.385,4.19
		c-0.288,4.971-0.312,9.974-0.934,14.902c-0.421,3.336-1.55,6.607-2.594,9.833c-1.19,3.678-1.084,6.983,1.677,9.973
		c1.417,1.535,2.023,3.33,1.529,5.524c-0.887,3.941-1.404,7.8,1.87,11.192c1.27,1.314,1.291,2.945-0.764,4.266
		c-1.312,0.845-2.117,2.485-3.129,3.784c-1.58,2.026-3.085,4.113-4.729,6.085c-1.953,2.343-4.018,4.592-6.424,7.325
		c2.261,4.586-1.417,9.17-2.117,14.145c-0.705,5.001-0.9,9.882-0.104,14.872c0.513,3.207,1.19,6.406,1.672,9.557
		c0.625,4.096-0.279,8.491-0.938,12.692c-0.37,2.358-0.302,4.403,0.561,6.648c1.067,2.777,1.635,5.745,2.455,8.62
		c0.554,1.942,1.294,3.637,3.29,4.75c2.049,1.144,3.2,3.157,3.569,5.579c0.192,1.258,0.389,2.648,1.054,3.675
		c2.207,3.407,3.146,7.228,4.471,10.98c1.178,3.337,3.965,6.219,6.432,8.95c1.686,1.866,3.939,3.295,6.124,4.612
		c2.249,1.355,3.116,3.258,3.055,5.693c-0.047,1.848-0.381,3.689-0.425,5.538c-0.072,3.062,1.779,4.453,4.346,2.87
		c3.812-2.35,6.918-1.898,10.637,0.428c4.086,2.557,8.716,3.232,13.479,1.039c3.011-1.387,6.042,0.777,6.393,4.666
		c0.268,2.961-0.13,5.978-0.15,8.971c-0.039,5.961-0.168,11.928,0.056,17.88c0.074,1.961,0.073,3.691-1.164,5.23
		c-1.604,1.994-1.998,4.241-2.13,6.769c-0.153,2.929-0.967,5.822-1.646,9.569c0.244,0.171,1.036,0.754,1.852,1.299
		c4.809,3.211,8.349,7.709,12.169,11.928c1.233,1.362,2.458,2.77,3.888,3.902c1.825,1.444,2.818,3.094,2.703,5.479
		c-0.313,6.479-1.79,12.551-5.319,18.123c-2.89,4.563-5.568,9.272-8.112,14.038c-5.089,9.533-10.074,19.125-15.005,28.74
		c-4.011,7.82-7.623,15.855-11.888,23.53c-4.127,7.426-6.664,15.414-8.768,23.483c-2.614,10.022,3.204,22.405,13.688,26.597
		c8.617,3.445,17.292,4.336,26.397,2.933c2.917-0.45,6.014-0.331,8.951,0.079c3.883,0.542,4.597,2.328,3.396,6.013
		c-2.163,6.635-4.187,13.317-6.161,20.011c-0.304,1.03,0.011,2.23-0.043,3.348c-0.054,1.116-0.152,2.236-0.335,3.338
		c-0.457,2.756-0.972,5.502-1.468,8.272c3.508,1.458,5.896,3.077,6.803,6.604c0.482,1.875,2.002,3.822,4.667,3.766
		c0.552-0.012,1.417,0.414,1.623,0.87c1.02,2.264,2.284,1.323,3.752,0.557c5.056-2.64,10.066-2.41,14.952,0.509
		c2.306,1.378,4.523,2.922,6.905,4.149c1.961,1.011,2.891,2.251,2.075,4.431c-2.577,6.88,0.3,13.142,2.201,19.516
		c3.575,3.342,3.954,8.661,7.777,12.062c1.752,1.558,2.897,3.887,5.149,5.275c2.251,1.389,2.426,3.914,1.512,6.151
		c-1.015,2.481-1.347,4.766-0.68,7.441c0.732,2.938-2.68,9.5-5.453,10.436c-3.918,1.322-4.572,4.64-5.374,7.834
		c-0.365,1.453-0.124,3.151,0.193,4.665c0.61,2.919,0.896,5.747,0.833,8.799c-0.077,3.712,1.432,7.461,2.298,11.184
		c0.159,0.684,0.461,1.356,0.81,1.97c1.472,2.588-0.095,5.911,2.41,8.4c1.96,1.948,3.338,4.52,4.807,6.916
		c1.098,1.793,1.93,3.749,2.644,5.164c2.811,2.716,5.513,5.013,7.812,7.659c1.484,1.709,2.802,2.964,5.25,3.094
		c2.544,0.136,4.613,1.44,6.804,3.023c3.514,2.538,7.785,4.029,11.753,5.928c0.356,0.171,1.034,0.28,1.228,0.085
		c3.201-3.227,6.366-0.433,9.321,0.314c2.415,0.611,4.391,0.899,6.436-0.592c1.804-1.316,3.66-1.477,5.575-0.213
		c1.54,1.018,2.817,0.564,4.313-0.382c1.25-0.791,2.866-1.193,4.365-1.36c3.814-0.424,7.651-0.803,11.484-0.854
		c3.771-0.052,7.548,0.321,11.746,0.529c0.998-0.745,2.404-2.495,4.101-2.848c1.474-0.305,3.275,0.973,5.865,1.876
		c1.876-0.281,4.805-0.902,7.761-1.08c1.315-0.079,2.75,0.594,4.017,1.174c2.842,1.302,5.488,3.093,8.812,3.015
		c0.54-0.013,1.146,0.218,1.623,0.502c4.555,2.717,9.088,5.469,14.073,8.479c3.201-1.207,6.835-0.451,10.407,1.049
		c0.517,0.217,1.192,0.599,1.606,0.433c3.237-1.295,5.551,1.89,8.589,1.727c0.617-0.032,1.496,1.207,1.93,2.031
		c2.19,4.16,4.455,8.298,6.353,12.593c2.885,6.533,7.323,11.979,12.279,16.854c6.755,6.647,12.395,14.131,17.933,21.725
		c0.711,0.976,0.822,2.681,0.618,3.953c-0.215,1.347-0.976,2.694-1.779,3.845c-5.938,8.514-12.038,16.915-17.892,25.484
		c-3.039,4.449-5.637,9.198-8.515,13.761c-4.174,6.614-8.452,13.163-12.625,19.778c-2.051,3.252-4.061,6.536-5.922,9.899
		c-3.874,6.999-3.933,14.385-2.179,22.002c1.565,6.796,2.974,13.631,4.261,20.485c1.357,7.226,2.583,14.469,3.223,21.819
		c0.371,4.266,1.074,8.407,0.162,12.73c-0.417,1.979,0.507,4.207,0.573,6.33c0.254,8.323-1.468,16.425-2.849,24.568
		c-0.618,3.641-0.95,7.329-1.422,10.994c-0.127,0.985-0.154,2.013-0.461,2.942c-1.421,4.3-3.263,8.492-4.306,12.877
		c-1.082,4.547-1.806,9.255-1.983,13.92c-0.234,6.152-0.953,12.111-2.592,18.085c-1.42,5.177-1.809,10.635-2.666,15.967
		c-0.18,1.122-0.42,2.234-0.628,3.353c-0.648,3.491-1.295,6.982-1.938,10.475c-0.181,0.979-0.196,2.021-0.552,2.93
		c-1.446,3.69-3.025,7.328-4.495,11.009c-0.892,2.234-1.558,4.563-2.525,6.761c-2.663,6.05-5.553,12.001-8.112,18.093
		c-1.641,3.906-2.805,8.011-4.273,11.993c-1.866,5.062-3.791,10.102-5.752,15.127c-1.699,4.35-3.66,8.606-5.184,13.015
		c-1.615,4.67-2.834,9.476-4.266,14.21c-0.401,1.326-0.809,2.68-1.449,3.896c-1.658,3.151-3.701,6.136-3.721,9.898
		c-0.001,0.281-0.041,0.58-0.141,0.842c-1.978,5.17-3.965,10.336-5.956,15.5c-0.358,0.931-0.905,1.818-1.088,2.779
		c-1.188,6.22-4.019,11.801-6.603,17.487c-0.458,1.007-0.76,2.218-0.69,3.306c0.19,2.942-0.725,5.55-1.685,8.267
		c-1.46,4.132-2.483,8.419-3.692,12.64c-70.585,0-141.17,0-211.768,0c0-426.932,0-853.865,0-1280.883c306.848,0,613.707,0,920.846,0
		c0,1.524,0,3.151,0,4.778c0,424.083,0.001,848.166-0.053,1272.249C1101.663,1278.739,1102.651,1280.392,1100.858,1281.342z"/>
</g>
</svg>
