<?xml version="1.0" encoding="utf-8"?>
<!-- Generator: Adobe Illustrator 16.0.0, SVG Export Plug-In . SVG Version: 6.00 Build 0)  -->
<!DOCTYPE svg PUBLIC "-//W3C//DTD SVG 1.1//EN" "http://www.w3.org/Graphics/SVG/1.1/DTD/svg11.dtd">
<svg version="1.1" id="Layer_1" xmlns="http://www.w3.org/2000/svg" xmlns:xlink="http://www.w3.org/1999/xlink" x="0px" y="0px"
	 width="960px" height="960px" viewBox="0 0 960 960" enable-background="new 0 0 960 960" xml:space="preserve">
<rect x="7.848" y="7.881" fill="none" width="952.152" height="952.152"/>
<circle fill="#FF1B22" cx="483.7" cy="490.74" r="431.45"/>
<g>
	<polygon fill="#960058" points="674.71,593.378 506.459,722.519 506.459,488.139 	"/>
</g>
<g>
	<polygon fill="#C91255" points="674.71,367.092 674.71,593.764 506.459,488.139 	"/>
</g>
<g>
	<polygon fill="#E51C73" points="506.459,229.864 675.017,367.092 506.459,488.139 	"/>
</g>
<g>
	<path fill="#FFFFFF" d="M157.541,406.19v-5.087h14.924c11.363,0,18.064,5.002,18.064,28.322c0,12.466-0.68,28.239-17.893,28.239
		h-15.096v-5.089h4.579V406.19H157.541z M167.802,452.575h4.663c6.87,0,12.126-1.78,12.126-23.149
		c0-21.538-5.766-23.235-10.768-23.235h-6.021V452.575z"/>
	<path fill="#FFFFFF" d="M211.637,401.104h27.56v5.087H217.32v18.655h18.062v5.089H217.32v22.64h21.877v5.089h-27.56V401.104z"/>
	<path fill="#FFFFFF" d="M282.781,413.992c-0.936-4.154-2.969-8.31-7.803-8.31c-5.342,0-7.462,4.325-7.462,9.074
		c0,4.58,0.933,6.021,9.838,11.363c6.952,4.154,11.702,7.632,11.702,16.366c0,8.903-4.75,15.942-14.248,15.942
		c-10.006,0-13.652-6.614-14.5-15.602l5.681-0.764c0.764,6.276,2.122,11.025,8.99,11.025c4.919,0,8.396-3.309,8.396-10.092
		c0-7.463-4.833-10.006-10.686-13.397c-6.529-3.818-10.854-6.532-10.854-14.841c0-7.632,5.087-14.417,13.144-14.417
		c7.972,0,11.872,5.682,13.313,12.805L282.781,413.992z"/>
	<path fill="#FFFFFF" d="M322.631,406.19h-7.632v-5.087h21.029v5.087h-7.716v46.385h7.716v5.089h-21.029v-5.089h7.632V406.19z"/>
	<path fill="#FFFFFF" d="M391.314,453.511c-3.647,2.967-8.396,4.917-13.146,4.917c-14.584,0-17.13-17.638-17.13-28.917
		c0-10.599,2.46-29.171,16.537-29.171c6.36,0,11.023,3.901,14.161,9.074l-5.003,3.053c-2.036-3.646-5.005-6.785-9.497-6.785
		c-9.414,0-10.26,17.3-10.26,23.998c0,19.419,5.68,23.406,11.278,23.406c2.374,0,5.427-1.018,7.377-2.629v-17.044h-10.599v-5.089
		h16.281V453.511z"/>
	<path fill="#FFFFFF" d="M412.509,401.104h7.123l16.791,47.573l0.169-0.171l-0.255-12.635v-34.768h5.682v56.561h-7.123
		l-16.791-47.658l-0.169,0.169l0.253,12.806v34.683h-5.681V401.104z"/>
	<path fill="#FFFFFF" d="M184.591,501.752l5.767,1.187l-16.79,57.579h-1.356l-16.792-57.579l5.767-1.187l11.702,42.315
		L184.591,501.752z"/>
	<path fill="#FFFFFF" d="M211.637,502.854h27.56v5.087H217.32v18.655h18.062v5.089H217.32v22.643h21.877v5.087h-27.56V502.854z"/>
	<path fill="#FFFFFF" d="M262.937,502.854H278.2c5.597,0,12.635,4.831,12.635,15.01c0,6.952-2.798,13.566-9.752,15.941
		l11.703,24.254l-5.089,2.458l-12.719-26.289h-6.36v25.187h-5.681V502.854z M268.618,529.142h8.312c4.917,0,7.97-3.646,7.97-11.277
		c0-7.378-3.561-9.923-9.328-9.923h-6.954V529.142z"/>
	<path fill="#FFFFFF" d="M319.493,526.174h1.527l15.771-24.422l4.58,2.882l-15.518,23.914l18.569,29.087l-4.748,2.883l-18.23-29.256
		h-1.952v28.153h-5.68v-56.561h5.68V526.174z"/>
</g>
</svg>
