<?xml version="1.0" encoding="utf-8"?>
<!-- Generator: Adobe Illustrator 16.0.0, SVG Export Plug-In . SVG Version: 6.00 Build 0)  -->
<!DOCTYPE svg PUBLIC "-//W3C//DTD SVG 1.1//EN" "http://www.w3.org/Graphics/SVG/1.1/DTD/svg11.dtd">
<svg version="1.1" xmlns="http://www.w3.org/2000/svg" xmlns:xlink="http://www.w3.org/1999/xlink" x="0px" y="0px" width="920px"
	 height="1280px" viewBox="180 0 920 1280" enable-background="new 180 0 920 1280" xml:space="preserve">
<g id="Layer_1" display="none">
	<g display="inline">
		<path fill-rule="evenodd" clip-rule="evenodd" fill="#FF1B21" d="M1100.858,1281.342c-236.073,0-472.147,0-708.22,0
			c1.208-4.221,2.232-8.508,3.692-12.64c0.96-2.717,1.875-5.324,1.685-8.267c-0.07-1.088,0.232-2.299,0.69-3.306
			c2.584-5.687,5.415-11.268,6.603-17.487c0.183-0.961,0.729-1.849,1.088-2.779c1.991-5.164,3.978-10.33,5.956-15.5
			c0.1-0.262,0.139-0.561,0.141-0.842c0.02-3.763,2.063-6.747,3.721-9.898c0.641-1.217,1.048-2.57,1.449-3.896
			c1.432-4.734,2.651-9.54,4.266-14.21c1.524-4.408,3.485-8.665,5.184-13.015c1.962-5.025,3.886-10.065,5.752-15.127
			c1.468-3.982,2.632-8.087,4.273-11.993c2.559-6.092,5.45-12.043,8.112-18.093c0.967-2.198,1.634-4.526,2.525-6.761
			c1.47-3.681,3.049-7.318,4.495-11.009c0.356-0.909,0.371-1.951,0.552-2.93c0.644-3.492,1.291-6.983,1.938-10.475
			c0.208-1.118,0.448-2.23,0.628-3.353c0.857-5.332,1.246-10.79,2.666-15.967c1.639-5.974,2.358-11.933,2.592-18.085
			c0.177-4.665,0.902-9.373,1.983-13.92c1.043-4.385,2.885-8.577,4.306-12.877c0.308-0.93,0.334-1.957,0.461-2.942
			c0.472-3.665,0.804-7.354,1.422-10.994c1.381-8.144,3.104-16.245,2.849-24.568c-0.065-2.123-0.99-4.351-0.573-6.33
			c0.913-4.323,0.209-8.465-0.162-12.73c-0.64-7.351-1.866-14.594-3.223-21.819c-1.287-6.854-2.696-13.689-4.261-20.485
			c-1.754-7.617-1.695-15.003,2.179-22.002c1.861-3.363,3.871-6.647,5.922-9.899c4.173-6.615,8.451-13.164,12.625-19.778
			c2.878-4.563,5.476-9.312,8.515-13.761c5.854-8.569,11.954-16.971,17.892-25.484c0.803-1.15,1.563-2.498,1.779-3.845
			c0.204-1.272,0.093-2.978-0.618-3.953c-5.538-7.594-11.178-15.077-17.933-21.725c-4.956-4.876-9.395-10.321-12.279-16.854
			c-1.897-4.295-4.162-8.433-6.353-12.593c-0.434-0.824-1.313-2.063-1.93-2.031c-3.038,0.163-5.353-3.021-8.589-1.727
			c-0.414,0.166-1.089-0.216-1.606-0.433c-3.572-1.5-7.207-2.256-10.407-1.049c-4.984-3.011-9.518-5.763-14.073-8.479
			c-0.477-0.284-1.083-0.515-1.623-0.502c-3.324,0.078-5.97-1.713-8.812-3.015c-1.266-0.58-2.701-1.253-4.017-1.174
			c-2.956,0.178-5.884,0.799-7.761,1.08c-2.59-0.903-4.392-2.181-5.865-1.876c-1.697,0.353-3.103,2.103-4.101,2.848
			c-4.197-0.208-7.975-0.581-11.746-0.529c-3.833,0.052-7.67,0.431-11.484,0.854c-1.499,0.167-3.116,0.569-4.365,1.36
			c-1.497,0.946-2.774,1.399-4.313,0.382c-1.915-1.264-3.771-1.104-5.575,0.213c-2.045,1.491-4.021,1.203-6.436,0.592
			c-2.956-0.747-6.12-3.541-9.321-0.314c-0.193,0.195-0.872,0.086-1.228-0.085c-3.968-1.898-8.239-3.39-11.753-5.928
			c-2.191-1.583-4.26-2.888-6.804-3.023c-2.448-0.13-3.766-1.385-5.25-3.094c-2.299-2.646-5.001-4.943-7.812-7.659
			c-0.714-1.415-1.546-3.371-2.644-5.164c-1.469-2.396-2.846-4.968-4.807-6.916c-2.504-2.489-0.938-5.813-2.41-8.4
			c-0.349-0.613-0.651-1.286-0.81-1.97c-0.866-3.723-2.375-7.472-2.298-11.184c0.064-3.052-0.222-5.88-0.833-8.799
			c-0.317-1.514-0.558-3.212-0.193-4.665c0.802-3.194,1.456-6.512,5.374-7.834c2.773-0.936,6.185-7.498,5.453-10.436
			c-0.667-2.676-0.335-4.96,0.68-7.441c0.914-2.237,0.739-4.763-1.512-6.151c-2.252-1.389-3.397-3.718-5.149-5.275
			c-3.824-3.4-4.203-8.72-7.777-12.062c-1.901-6.374-4.778-12.636-2.201-19.516c0.816-2.18-0.114-3.42-2.075-4.431
			c-2.382-1.228-4.599-2.771-6.905-4.149c-4.885-2.919-9.896-3.149-14.952-0.509c-1.469,0.767-2.732,1.707-3.752-0.557
			c-0.206-0.456-1.071-0.881-1.623-0.87c-2.665,0.056-4.185-1.891-4.667-3.766c-0.907-3.528-3.295-5.147-6.803-6.604
			c0.496-2.771,1.012-5.517,1.468-8.272c0.183-1.102,0.281-2.222,0.335-3.338c0.054-1.118-0.26-2.318,0.043-3.348
			c1.975-6.694,3.999-13.376,6.161-20.011c1.201-3.685,0.486-5.471-3.396-6.013c-2.938-0.41-6.034-0.528-8.951-0.079
			c-9.104,1.403-17.78,0.512-26.397-2.933c-10.484-4.192-16.302-16.575-13.688-26.597c2.104-8.069,4.641-16.057,8.768-23.483
			c4.265-7.675,7.877-15.71,11.888-23.53c4.932-9.616,9.916-19.207,15.005-28.74c2.544-4.766,5.222-9.475,8.112-14.038
			c3.529-5.571,5.005-11.644,5.319-18.123c0.115-2.385-0.878-4.034-2.703-5.479c-1.43-1.132-2.655-2.541-3.888-3.902
			c-3.821-4.218-7.361-8.717-12.169-11.928c-0.816-0.545-1.608-1.127-1.852-1.299c0.679-3.747,1.493-6.64,1.646-9.569
			c0.132-2.528,0.526-4.775,2.13-6.769c1.237-1.539,1.238-3.269,1.164-5.23c-0.224-5.952-0.094-11.919-0.056-17.88
			c0.021-2.993,0.418-6.01,0.15-8.971c-0.351-3.888-3.381-6.052-6.393-4.666c-4.763,2.193-9.393,1.518-13.479-1.039
			c-3.718-2.326-6.825-2.778-10.637-0.428c-2.567,1.583-4.418,0.192-4.346-2.87c0.044-1.848,0.378-3.689,0.425-5.538
			c0.062-2.435-0.806-4.338-3.055-5.693c-2.185-1.317-4.438-2.747-6.124-4.612c-2.466-2.731-5.253-5.613-6.432-8.95
			c-1.325-3.752-2.264-7.573-4.471-10.98c-0.665-1.026-0.862-2.417-1.054-3.675c-0.37-2.422-1.52-4.435-3.569-5.579
			c-1.996-1.113-2.736-2.807-3.29-4.75c-0.82-2.875-1.387-5.842-2.455-8.62c-0.862-2.245-0.93-4.29-0.561-6.648
			c0.659-4.202,1.563-8.596,0.938-12.692c-0.481-3.151-1.159-6.351-1.672-9.557c-0.796-4.989-0.601-9.87,0.104-14.872
			c0.701-4.974,4.378-9.559,2.117-14.145c2.406-2.732,4.472-4.981,6.424-7.325c1.644-1.972,3.149-4.059,4.729-6.085
			c1.013-1.299,1.817-2.939,3.129-3.784c2.054-1.321,2.033-2.952,0.764-4.266c-3.274-3.392-2.757-7.251-1.87-11.192
			c0.495-2.194-0.112-3.989-1.529-5.524c-2.762-2.99-2.867-6.295-1.677-9.973c1.044-3.226,2.172-6.497,2.594-9.833
			c0.622-4.928,0.646-9.931,0.934-14.902c0.082-1.418-0.307-3.179,0.385-4.19c2.429-3.549,3.94-7.45,5.28-11.463
			c0.044-0.131,0.168-0.234,0.222-0.365c0.813-1.958,1.994-3.851,2.361-5.89c1.174-6.541,4.567-11.867,8.777-16.732
			c1.157-1.337,2.875-2.698,4.523-2.991c2.986-0.532,4.733-1.972,6.266-4.502c1.975-3.26,5.64-4.405,8.497-3.152
			c3.374,1.479,6.973,2.648,10.007,4.656c6.406,4.239,14.063,5.158,20.828,8.459c4.574,2.232,6.343,0.99,7.832-3.889
			c0.581-1.903,0.872-3.894,1.327-5.837c0.257-1.096,0.369-2.293,0.905-3.243c2.858-5.067,4.936-10.64,9.082-14.893
			c3.679-3.774,7.276-7.697,11.369-10.98c3.85-3.088,8.524-5.135,12.439-8.155c7.541-5.817,16.323-9.25,24.663-13.533
			c2.622-1.347,5.668-2.04,8.002-3.743c6.272-4.577,13.461-6.685,20.827-8.234c3.649-0.768,7.284-1.171,10.437-3.427
			c0.875-0.626,2.14-0.692,3.214-1.054c4.135-1.392,8.795-0.904,12.603-3.609c0.567-0.403,1.824,0.21,2.768,0.281
			c2.084,0.157,4.358,0.863,6.221,0.28c4.662-1.458,9.184-1.371,13.929-0.621c4.681,0.74,8.976,0.563,12.833-3.636
			c3.68-4.008,8.669-6.356,14.665-6.62c3.397-0.149,7.435,0.764,10.429-2.252c0.375-0.378,1.373-0.128,2.08-0.19
			c1.678-0.146,3.356-0.306,5.243-0.479c0.326-1.635,0.652-3.153,0.927-4.679c0.49-2.73,1.357-3.376,4-3.196
			c1.517,0.103,3.05-0.068,4.574-0.035c0.969,0.021,2.347-0.185,2.833,0.352c3.043,3.366,7.497,1.811,11.119,3.267
			c1.687,0.678,4.261-0.536,6.437,0.408c0.339,0.147,1.081-0.323,1.479-0.681c2.274-2.042,5.02-2.415,7.93-2.701
			c1.6-0.158,3.773-0.792,4.534-1.962c2.273-3.497,4.96-3.233,8.157-1.893c1.763,0.739,3.331,0.239,4.739-1.009
			c1.574-1.394,3.674-2.443,4.702-4.149c1.561-2.593,4.449-4.263,4.786-7.782c0.371-3.877,2.491-5.125,6.338-6.41
			c8.356-2.791,16.699-0.688,25.039-0.436c1.768,0.054,3.593,0.913,5.244,1.709c6.298,3.042,12.198,6.687,17.438,11.401
			c2.768,2.49,5.693,4.459,10.031,3.171c2.407-0.715,5.343-0.906,7.893,0.676c2.757,1.711,5.626,3.242,8.406,4.917
			c0.587,0.353,1.107,0.924,1.477,1.51c1.142,1.809,2.515,3.56,3.221,5.539c1.646,4.612,4.716,6.767,9.505,5.934
			c4.001-0.696,7.205,0.604,10.15,3.082c0.435,0.367,0.999,0.597,1.389,1c4.857,5.015,11.313,3.998,17.257,4.164
			c2.289,0.064,3.975,0.162,5.748,1.632c5.265,4.361,11.196,7.015,18.198,7.376c8.078,0.417,15.833-1.495,23.659-2.81
			c3.034-0.51,5.823-2.339,8.841-3.115c4.542-1.167,9.151-2.218,13.796-2.798c4.646-0.58,9.369-0.561,14.063-0.7
			c0.795-0.024,1.753,0.289,2.385,0.772c2.772,2.123,5.953,2.521,9.291,2.621c2.674,0.081,5.473,0.025,6.747,3.263
			c0.273,0.695,1.264,1.103,1.915,1.653c4.023,3.403,8.167,6.676,12.032,10.251c4.181,3.868,8.09,8.028,12.142,12.036
			c0.602,0.594,1.271,1.193,2.024,1.545c2.16,1.008,4.376,1.898,6.576,2.819c5.188,2.171,9.122,7.939,9.122,13.566
			c0,2.189,0.361,4.087,1.632,6.032c1.013,1.551,1.636,3.755,1.469,5.581c-0.232,2.55,0.194,4.773,1.171,7.031
			c0.444,1.029,1.064,2.154,1.001,3.198c-0.204,3.333,0.058,6.288,3.583,7.913c0.405,0.188,0.682,0.921,0.787,1.447
			c0.668,3.33,3.137,5.26,5.372,7.501c2.179,2.186,5.525,3.995,4.199,8.148c-0.167,0.521,0.276,1.456,0.727,1.916
			c1.952,1.998,3.142,4.741,6.221,5.683c1.123,0.344,2.097,1.828,2.73,3.011c3.581,6.686,9.435,11.303,14.734,16.423
			c0.388,0.375,0.993,0.579,1.534,0.729c3.831,1.056,6.263,3.794,8.474,6.861c0.821,1.141,1.695,2.387,2.842,3.126
			c4.748,3.065,5.841,7.529,5.04,12.682c-0.457,2.945-1.338,5.823-1.889,8.757c-0.199,1.061-0.362,2.39,0.094,3.265
			c1.43,2.738,3.201,5.295,4.749,7.975c0.406,0.703,0.711,1.61,0.665,2.401c-0.183,3.089,1.337,5.279,3.066,7.699
			c3.341,4.674,7.59,8.892,8.467,15.062c0.15,1.058,1.741,2.198,2.924,2.753c1.768,0.831,2.978,1.897,4.014,3.592
			c0.811,1.328,2.416,2.95,3.755,3.031c4.108,0.249,6.005,2.784,7.472,5.902c4.622,1.386,9.105,2.72,13.581,4.084
			c0.536,0.164,1.171,0.37,1.5,0.771c0.603,0.733,1.56,1.75,1.405,2.432c-0.76,3.378,0.123,7.118-2.562,10.112
			c-2.229,2.485-2.024,4.097-0.289,6.95c0.866,1.426,2.094,3.084,1.998,4.563c-0.343,5.326,0.871,10.394,1.972,15.483
			c0.231,1.07,1.229,2.713,2.005,2.791c2.737,0.276,5.483,1.32,8.33-0.285c2.479-1.398,5.348-1.701,8.504-0.458
			c-0.259,1.631-0.708,3.148-0.682,4.657c0.026,1.476,0.022,3.59,0.921,4.305c4.84,3.847,5.593,9.598,6.311,14.801
			c1.359,9.848-1.171,18.897-8.535,26.236c-2.316,2.309-4.064,5.042-2.005,8.747c0.753,1.355,0.212,3.376,0.537,5.039
			c0.289,1.474,0.541,3.365,1.539,4.215c3.2,2.727,4.241,6.104,4.704,10.115c0.502,4.355-0.672,7.783-3.751,10.766
			c-3.167,3.069-6.112,6.161-7.529,10.667c-0.817,2.598-0.828,4.181,1.088,6.032c3.314,3.201,3.096,6.93-0.387,9.819
			c-3.896,3.231-4.169,4.282-2.691,9.209c0.693,2.312,1.457,4.641,1.78,7.018c0.707,5.208,1.089,10.414,0.113,15.693
			c-0.825,4.461-1.027,9.035-1.632,13.541c-0.526,3.935-1.173,7.857-1.875,11.765c-0.5,2.784-0.899,5.637-1.853,8.276
			c-1.152,3.189-2.993,6.124-4.251,9.282c-1.044,2.62-1.562,5.447-2.521,8.106c-1.153,3.196-2.186,6.52-3.928,9.39
			c-1.16,1.91-2.227,3.582-2.007,5.848c0.206,2.118-0.382,4.04-1.871,5.503c-2.71,2.662-3.176,5.766-2.666,9.381
			c0.218,1.544-0.05,3.634-0.968,4.772c-2.636,3.268-3.438,6.812-2.763,10.791c0.361,2.133,0.024,4.14-1.49,5.566
			c-2.79,2.626-3.258,5.808-3.146,9.383c0.113,3.56,0.59,7.338-0.38,10.644c-1.202,4.098-1.517,8.083-1.286,12.219
			c0.116,2.092-0.443,3.833-1.734,5.55c-1.088,1.446-1.804,3.229-2.422,4.956c-1.147,3.211-1.778,6.646-3.227,9.701
			c-1.616,3.41-2.773,7.137-5.934,9.748c-1.203,0.995-1.842,2.872-2.34,4.471c-0.736,2.362-1.938,3.782-4.407,4.698
			c-2.32,0.859-4.645,2.388-6.281,4.231c-1.835,2.065-3.877,3.447-6.428,3.896c-3.308,0.583-5.612,2.481-7.951,4.681
			c-3.417,3.214-6.884,6.461-10.729,9.114c-5.973,4.117-12.83,6.585-19.519,9.317c-1.052,0.43-2.063,0.956-3.119,1.376
			c-2.092,0.833-4.14,1.948-6.315,2.359c-3.835,0.723-7.614,2.117-11.695,1.076c-1.241-0.317-2.798,0.343-4.145,0.766
			c-1.936,0.608-2.956,1.964-3.239,4.074c-0.531,3.961-0.679,7.887,0.043,11.835c0.448,2.453,1.441,3.391,3.884,3.8
			c3.646,0.611,7.298,1.224,10.899,2.042c3.632,0.824,6.178,3.095,8.455,6.096c4.258,5.609,4.447,12.529,6.631,18.786
			c1.53,4.385,1.974,9.136,3.266,13.617c2.325,8.058,4.975,16.021,7.395,24.052c2.961,9.828,5.777,19.699,8.747,29.524
			c2.017,6.673,4.215,13.291,6.273,19.951c0.46,1.485,1.058,3.075,0.937,4.563c-0.29,3.565,1.229,5.773,4,7.891
			c5.13,3.92,9.668,8.572,11.862,14.818c2.014,5.732,4.777,10.941,8.531,15.709c2.467,3.133,4.522,6.586,6.945,9.756
			c2.848,3.724,5.803,7.374,8.876,10.913c4.573,5.269,9.114,10.585,14.001,15.556c4.298,4.371,8.803,8.525,12.461,13.48
			c0.249,0.338,0.645,0.563,0.948,0.864c4.836,4.806,9.688,9.595,14.495,14.43c4.612,4.641,9.174,9.332,13.763,13.996
			c3.006,3.054,6.228,5.923,8.993,9.181c6.469,7.62,13.223,14.907,20.825,21.45c9.605,8.266,19.184,16.644,24.655,28.524
			c0.176,0.383,0.473,0.713,0.729,1.056c7.604,10.146,15.288,20.231,22.786,30.455c5.058,6.896,9.864,13.975,14.744,20.999
			c0.473,0.681,0.603,1.59,1.008,2.328c1.222,2.226,2.444,4.454,3.769,6.619c2.985,4.881,5.936,9.701,5.651,15.811
			c-0.225,4.835-0.046,9.688-0.046,14.164c2.139,1.362,4.133,2.271,5.663,3.681c3.568,3.292,6.943,6.797,10.327,10.282
			c0.769,0.792,1.647,1.797,1.806,2.809c0.768,4.91,1.307,9.855,1.926,14.789c0.175,1.4-0.02,2.988,0.584,4.169
			c2.253,4.399,4.785,8.656,7.162,12.993c0.399,0.729,0.577,1.585,0.808,2.396c1.298,4.563,0.922,9.689,4.597,13.46
			c0.351,0.36,0.408,1.052,0.506,1.606c0.943,5.316,1.797,10.648,2.832,15.946c0.351,1.796,1.208,3.487,1.715,5.261
			c0.575,2.013,1.168,4.041,1.473,6.104c0.289,1.961-0.278,4.162,0.391,5.934c2.356,6.237,4.837,12.455,7.749,18.448
			c2.105,4.333,3.535,8.852,3.75,13.497c0.208,4.478,1.414,8.425,3.738,12.028c1.964,3.046,2.548,6.195,2.488,9.729
			c-0.047,2.813-0.092,5.882,0.94,8.395c1.25,3.039,1.658,5.979,1.58,9.137c-0.04,1.567,0.014,3.143,0.126,4.707
			c0.449,6.244,1.111,12.479,1.361,18.729C1101.049,1269.616,1100.86,1275.482,1100.858,1281.342z"/>
		<path fill-rule="evenodd" clip-rule="evenodd" fill="none" d="M1100.858,1281.342c0.002-5.859,0.19-11.726-0.043-17.575
			c-0.25-6.251-0.912-12.485-1.361-18.729c-0.112-1.564-0.166-3.14-0.126-4.707c0.078-3.157-0.33-6.098-1.58-9.137
			c-1.032-2.513-0.987-5.581-0.94-8.395c0.06-3.533-0.524-6.683-2.488-9.729c-2.324-3.604-3.53-7.551-3.738-12.028
			c-0.215-4.646-1.645-9.164-3.75-13.497c-2.912-5.993-5.393-12.211-7.749-18.448c-0.669-1.771-0.102-3.973-0.391-5.934
			c-0.305-2.063-0.897-4.092-1.473-6.104c-0.507-1.773-1.364-3.465-1.715-5.261c-1.035-5.298-1.889-10.63-2.832-15.946
			c-0.098-0.555-0.155-1.246-0.506-1.606c-3.675-3.771-3.299-8.897-4.597-13.46c-0.23-0.811-0.408-1.667-0.808-2.396
			c-2.377-4.337-4.909-8.594-7.162-12.993c-0.604-1.181-0.409-2.769-0.584-4.169c-0.619-4.934-1.158-9.879-1.926-14.789
			c-0.158-1.012-1.037-2.017-1.806-2.809c-3.384-3.485-6.759-6.99-10.327-10.282c-1.53-1.41-3.524-2.318-5.663-3.681
			c0-4.476-0.179-9.329,0.046-14.164c0.284-6.109-2.666-10.93-5.651-15.811c-1.324-2.165-2.547-4.394-3.769-6.619
			c-0.405-0.738-0.535-1.647-1.008-2.328c-4.88-7.024-9.687-14.104-14.744-20.999c-7.498-10.224-15.183-20.309-22.786-30.455
			c-0.257-0.343-0.554-0.673-0.729-1.056c-5.472-11.881-15.05-20.259-24.655-28.524c-7.603-6.543-14.356-13.83-20.825-21.45
			c-2.766-3.258-5.987-6.127-8.993-9.181c-4.589-4.664-9.15-9.355-13.763-13.996c-4.807-4.835-9.659-9.624-14.495-14.43
			c-0.304-0.302-0.699-0.526-0.948-0.864c-3.658-4.955-8.163-9.109-12.461-13.48c-4.887-4.971-9.428-10.287-14.001-15.556
			c-3.073-3.539-6.028-7.189-8.876-10.913c-2.423-3.17-4.479-6.623-6.945-9.756c-3.754-4.768-6.518-9.977-8.531-15.709
			c-2.194-6.246-6.732-10.898-11.862-14.818c-2.771-2.117-4.29-4.325-4-7.891c0.121-1.488-0.477-3.078-0.937-4.563
			c-2.059-6.66-4.257-13.278-6.273-19.951c-2.97-9.825-5.786-19.696-8.747-29.524c-2.42-8.03-5.069-15.994-7.395-24.052
			c-1.292-4.481-1.735-9.232-3.266-13.617c-2.184-6.257-2.373-13.177-6.631-18.786c-2.277-3.001-4.823-5.271-8.455-6.096
			c-3.602-0.818-7.254-1.431-10.899-2.042c-2.442-0.409-3.436-1.347-3.884-3.8c-0.722-3.948-0.574-7.874-0.043-11.835
			c0.283-2.11,1.304-3.466,3.239-4.074c1.347-0.423,2.903-1.083,4.145-0.766c4.081,1.041,7.86-0.354,11.695-1.076
			c2.176-0.411,4.224-1.526,6.315-2.359c1.056-0.42,2.067-0.946,3.119-1.376c6.688-2.732,13.546-5.2,19.519-9.317
			c3.846-2.652,7.313-5.899,10.729-9.114c2.339-2.2,4.644-4.098,7.951-4.681c2.551-0.449,4.593-1.832,6.428-3.896
			c1.637-1.843,3.961-3.372,6.281-4.231c2.47-0.916,3.671-2.336,4.407-4.698c0.498-1.599,1.137-3.476,2.34-4.471
			c3.16-2.611,4.317-6.338,5.934-9.748c1.448-3.056,2.079-6.49,3.227-9.701c0.618-1.727,1.334-3.51,2.422-4.956
			c1.291-1.718,1.851-3.458,1.734-5.55c-0.23-4.136,0.084-8.121,1.286-12.219c0.97-3.306,0.493-7.084,0.38-10.644
			c-0.112-3.575,0.355-6.757,3.146-9.383c1.515-1.426,1.852-3.433,1.49-5.566c-0.675-3.979,0.127-7.523,2.763-10.791
			c0.918-1.138,1.186-3.228,0.968-4.772c-0.51-3.616-0.044-6.72,2.666-9.381c1.489-1.463,2.077-3.385,1.871-5.503
			c-0.22-2.266,0.847-3.938,2.007-5.848c1.742-2.87,2.774-6.194,3.928-9.39c0.959-2.66,1.477-5.486,2.521-8.106
			c1.258-3.158,3.099-6.093,4.251-9.282c0.953-2.639,1.353-5.492,1.853-8.276c0.702-3.908,1.349-7.83,1.875-11.765
			c0.604-4.506,0.807-9.08,1.632-13.541c0.976-5.279,0.594-10.485-0.113-15.693c-0.323-2.377-1.087-4.706-1.78-7.018
			c-1.478-4.927-1.204-5.978,2.691-9.209c3.482-2.889,3.701-6.618,0.387-9.819c-1.916-1.851-1.905-3.434-1.088-6.032
			c1.417-4.506,4.362-7.598,7.529-10.667c3.079-2.983,4.253-6.411,3.751-10.766c-0.463-4.011-1.504-7.389-4.704-10.115
			c-0.998-0.85-1.25-2.741-1.539-4.215c-0.325-1.663,0.216-3.684-0.537-5.039c-2.06-3.706-0.312-6.438,2.005-8.747
			c7.364-7.339,9.895-16.388,8.535-26.236c-0.718-5.203-1.471-10.954-6.311-14.801c-0.898-0.715-0.895-2.829-0.921-4.305
			c-0.026-1.509,0.423-3.026,0.682-4.657c-3.156-1.243-6.024-0.941-8.504,0.458c-2.847,1.604-5.593,0.561-8.33,0.285
			c-0.776-0.078-1.773-1.721-2.005-2.791c-1.101-5.09-2.314-10.157-1.972-15.483c0.096-1.479-1.132-3.136-1.998-4.563
			c-1.735-2.854-1.94-4.465,0.289-6.95c2.685-2.994,1.802-6.733,2.562-10.112c0.154-0.682-0.803-1.699-1.405-2.432
			c-0.329-0.401-0.964-0.607-1.5-0.771c-4.476-1.365-8.959-2.699-13.581-4.084c-1.467-3.118-3.363-5.653-7.472-5.902
			c-1.339-0.081-2.944-1.703-3.755-3.031c-1.036-1.695-2.246-2.762-4.014-3.592c-1.183-0.555-2.773-1.695-2.924-2.753
			c-0.877-6.169-5.126-10.387-8.467-15.062c-1.729-2.42-3.249-4.609-3.066-7.699c0.046-0.791-0.259-1.698-0.665-2.401
			c-1.548-2.68-3.319-5.237-4.749-7.975c-0.456-0.875-0.293-2.204-0.094-3.265c0.551-2.934,1.432-5.812,1.889-8.757
			c0.801-5.153-0.292-9.617-5.04-12.682c-1.146-0.74-2.021-1.985-2.842-3.126c-2.211-3.067-4.643-5.805-8.474-6.861
			c-0.541-0.149-1.146-0.354-1.534-0.729c-5.3-5.12-11.153-9.737-14.734-16.423c-0.634-1.183-1.607-2.667-2.73-3.011
			c-3.079-0.942-4.269-3.685-6.221-5.683c-0.45-0.46-0.894-1.396-0.727-1.916c1.326-4.153-2.021-5.962-4.199-8.148
			c-2.235-2.241-4.704-4.171-5.372-7.501c-0.105-0.526-0.382-1.26-0.787-1.447c-3.525-1.625-3.787-4.58-3.583-7.913
			c0.063-1.044-0.557-2.169-1.001-3.198c-0.977-2.258-1.403-4.481-1.171-7.031c0.167-1.826-0.456-4.03-1.469-5.581
			c-1.271-1.945-1.632-3.843-1.632-6.032c0-5.627-3.935-11.396-9.122-13.566c-2.2-0.921-4.416-1.811-6.576-2.819
			c-0.753-0.352-1.423-0.951-2.024-1.545c-4.052-4.008-7.961-8.168-12.142-12.036c-3.865-3.575-8.009-6.848-12.032-10.251
			c-0.651-0.551-1.642-0.958-1.915-1.653c-1.274-3.238-4.073-3.183-6.747-3.263c-3.338-0.101-6.519-0.499-9.291-2.621
			c-0.632-0.484-1.59-0.796-2.385-0.772c-4.693,0.139-9.417,0.121-14.063,0.7c-4.645,0.58-9.254,1.63-13.796,2.798
			c-3.018,0.776-5.807,2.605-8.841,3.115c-7.826,1.315-15.581,3.227-23.659,2.81c-7.002-0.361-12.934-3.015-18.198-7.376
			c-1.773-1.47-3.459-1.568-5.748-1.632c-5.944-0.166-12.4,0.852-17.257-4.164c-0.391-0.403-0.954-0.633-1.389-1
			c-2.945-2.479-6.149-3.778-10.15-3.082c-4.789,0.833-7.859-1.322-9.505-5.934c-0.706-1.979-2.079-3.73-3.221-5.539
			c-0.37-0.585-0.89-1.157-1.477-1.51c-2.78-1.675-5.649-3.206-8.406-4.917c-2.55-1.582-5.486-1.391-7.893-0.676
			c-4.338,1.288-7.263-0.682-10.031-3.171c-5.24-4.714-11.14-8.359-17.438-11.401c-1.65-0.796-3.476-1.656-5.244-1.709
			c-8.339-0.252-16.683-2.354-25.039,0.436c-3.848,1.285-5.967,2.533-6.338,6.41c-0.336,3.519-3.225,5.189-4.786,7.782
			c-1.028,1.707-3.127,2.755-4.702,4.149c-1.409,1.248-2.977,1.748-4.739,1.009c-3.196-1.34-5.883-1.604-8.157,1.893
			c-0.76,1.17-2.934,1.805-4.534,1.962c-2.91,0.286-5.655,0.659-7.93,2.701c-0.399,0.358-1.141,0.828-1.479,0.681
			c-2.176-0.944-4.75,0.27-6.437-0.408c-3.622-1.456-8.076,0.1-11.119-3.267c-0.486-0.537-1.864-0.331-2.833-0.352
			c-1.524-0.033-3.057,0.138-4.574,0.035c-2.644-0.18-3.511,0.466-4,3.196c-0.274,1.526-0.601,3.044-0.927,4.679
			c-1.887,0.173-3.565,0.333-5.243,0.479c-0.708,0.062-1.705-0.188-2.08,0.19c-2.994,3.016-7.032,2.103-10.429,2.252
			c-5.996,0.263-10.985,2.612-14.665,6.62c-3.856,4.2-8.151,4.376-12.833,3.636c-4.745-0.75-9.267-0.837-13.929,0.621
			c-1.863,0.583-4.137-0.123-6.221-0.28c-0.943-0.071-2.2-0.685-2.768-0.281c-3.808,2.706-8.467,2.217-12.603,3.609
			c-1.074,0.362-2.339,0.428-3.214,1.054c-3.153,2.255-6.788,2.659-10.437,3.427c-7.366,1.549-14.554,3.657-20.827,8.234
			c-2.334,1.703-5.38,2.396-8.002,3.743c-8.34,4.283-17.123,7.716-24.663,13.533c-3.915,3.02-8.589,5.067-12.439,8.155
			c-4.093,3.283-7.69,7.206-11.369,10.98c-4.146,4.253-6.224,9.825-9.082,14.893c-0.536,0.95-0.648,2.147-0.905,3.243
			c-0.455,1.943-0.746,3.934-1.327,5.837c-1.489,4.879-3.257,6.121-7.832,3.889c-6.764-3.302-14.422-4.22-20.828-8.459
			c-3.035-2.008-6.633-3.177-10.007-4.656c-2.856-1.252-6.522-0.107-8.497,3.152c-1.532,2.531-3.28,3.97-6.266,4.502
			c-1.649,0.293-3.366,1.654-4.523,2.991c-4.21,4.866-7.603,10.191-8.777,16.732c-0.367,2.039-1.547,3.932-2.361,5.89
			c-0.054,0.13-0.178,0.233-0.222,0.365c-1.34,4.013-2.851,7.914-5.28,11.463c-0.692,1.011-0.303,2.771-0.385,4.19
			c-0.288,4.971-0.312,9.974-0.934,14.902c-0.421,3.336-1.55,6.607-2.594,9.833c-1.19,3.678-1.084,6.983,1.677,9.973
			c1.417,1.535,2.023,3.33,1.529,5.524c-0.887,3.941-1.404,7.8,1.87,11.192c1.27,1.314,1.291,2.945-0.764,4.266
			c-1.312,0.845-2.117,2.485-3.129,3.784c-1.58,2.026-3.085,4.113-4.729,6.085c-1.953,2.343-4.018,4.592-6.424,7.325
			c2.261,4.586-1.417,9.17-2.117,14.145c-0.705,5.001-0.9,9.882-0.104,14.872c0.513,3.207,1.19,6.406,1.672,9.557
			c0.625,4.096-0.279,8.491-0.938,12.692c-0.37,2.358-0.302,4.403,0.561,6.648c1.067,2.777,1.635,5.745,2.455,8.62
			c0.554,1.942,1.294,3.637,3.29,4.75c2.049,1.144,3.2,3.157,3.569,5.579c0.192,1.258,0.389,2.648,1.054,3.675
			c2.207,3.407,3.146,7.228,4.471,10.98c1.178,3.337,3.965,6.219,6.432,8.95c1.686,1.866,3.939,3.295,6.124,4.612
			c2.249,1.355,3.116,3.258,3.055,5.693c-0.047,1.848-0.381,3.689-0.425,5.538c-0.072,3.062,1.779,4.453,4.346,2.87
			c3.812-2.35,6.918-1.898,10.637,0.428c4.086,2.557,8.716,3.232,13.479,1.039c3.011-1.387,6.042,0.777,6.393,4.666
			c0.268,2.961-0.13,5.978-0.15,8.971c-0.039,5.961-0.168,11.928,0.056,17.88c0.074,1.961,0.073,3.691-1.164,5.23
			c-1.604,1.994-1.998,4.241-2.13,6.769c-0.153,2.929-0.967,5.822-1.646,9.569c0.244,0.171,1.036,0.754,1.852,1.299
			c4.809,3.211,8.349,7.709,12.169,11.928c1.233,1.362,2.458,2.77,3.888,3.902c1.825,1.444,2.818,3.094,2.703,5.479
			c-0.313,6.479-1.79,12.551-5.319,18.123c-2.89,4.563-5.568,9.272-8.112,14.038c-5.089,9.533-10.074,19.125-15.005,28.74
			c-4.011,7.82-7.623,15.855-11.888,23.53c-4.127,7.426-6.664,15.414-8.768,23.483c-2.614,10.022,3.204,22.405,13.688,26.597
			c8.617,3.445,17.292,4.336,26.397,2.933c2.917-0.45,6.014-0.331,8.951,0.079c3.883,0.542,4.597,2.328,3.396,6.013
			c-2.163,6.635-4.187,13.317-6.161,20.011c-0.304,1.03,0.011,2.23-0.043,3.348c-0.054,1.116-0.152,2.236-0.335,3.338
			c-0.457,2.756-0.972,5.502-1.468,8.272c3.508,1.458,5.896,3.077,6.803,6.604c0.482,1.875,2.002,3.822,4.667,3.766
			c0.552-0.012,1.417,0.414,1.623,0.87c1.02,2.264,2.284,1.323,3.752,0.557c5.056-2.64,10.066-2.41,14.952,0.509
			c2.306,1.378,4.523,2.922,6.905,4.149c1.961,1.011,2.891,2.251,2.075,4.431c-2.577,6.88,0.3,13.142,2.201,19.516
			c3.575,3.342,3.954,8.661,7.777,12.062c1.752,1.558,2.897,3.887,5.149,5.275c2.251,1.389,2.426,3.914,1.512,6.151
			c-1.015,2.481-1.347,4.766-0.68,7.441c0.732,2.938-2.68,9.5-5.453,10.436c-3.918,1.322-4.572,4.64-5.374,7.834
			c-0.365,1.453-0.124,3.151,0.193,4.665c0.61,2.919,0.896,5.747,0.833,8.799c-0.077,3.712,1.432,7.461,2.298,11.184
			c0.159,0.684,0.461,1.356,0.81,1.97c1.472,2.588-0.095,5.911,2.41,8.4c1.96,1.948,3.338,4.52,4.807,6.916
			c1.098,1.793,1.93,3.749,2.644,5.164c2.811,2.716,5.513,5.013,7.812,7.659c1.484,1.709,2.802,2.964,5.25,3.094
			c2.544,0.136,4.613,1.44,6.804,3.023c3.514,2.538,7.785,4.029,11.753,5.928c0.356,0.171,1.034,0.28,1.228,0.085
			c3.201-3.227,6.366-0.433,9.321,0.314c2.415,0.611,4.391,0.899,6.436-0.592c1.804-1.316,3.66-1.477,5.575-0.213
			c1.54,1.018,2.817,0.564,4.313-0.382c1.25-0.791,2.866-1.193,4.365-1.36c3.814-0.424,7.651-0.803,11.484-0.854
			c3.771-0.052,7.548,0.321,11.746,0.529c0.998-0.745,2.404-2.495,4.101-2.848c1.474-0.305,3.275,0.973,5.865,1.876
			c1.876-0.281,4.805-0.902,7.761-1.08c1.315-0.079,2.75,0.594,4.017,1.174c2.842,1.302,5.488,3.093,8.812,3.015
			c0.54-0.013,1.146,0.218,1.623,0.502c4.555,2.717,9.088,5.469,14.073,8.479c3.201-1.207,6.835-0.451,10.407,1.049
			c0.517,0.217,1.192,0.599,1.606,0.433c3.237-1.295,5.551,1.89,8.589,1.727c0.617-0.032,1.496,1.207,1.93,2.031
			c2.19,4.16,4.455,8.298,6.353,12.593c2.885,6.533,7.323,11.979,12.279,16.854c6.755,6.647,12.395,14.131,17.933,21.725
			c0.711,0.976,0.822,2.681,0.618,3.953c-0.215,1.347-0.976,2.694-1.779,3.845c-5.938,8.514-12.038,16.915-17.892,25.484
			c-3.039,4.449-5.637,9.198-8.515,13.761c-4.174,6.614-8.452,13.163-12.625,19.778c-2.051,3.252-4.061,6.536-5.922,9.899
			c-3.874,6.999-3.933,14.385-2.179,22.002c1.565,6.796,2.974,13.631,4.261,20.485c1.357,7.226,2.583,14.469,3.223,21.819
			c0.371,4.266,1.074,8.407,0.162,12.73c-0.417,1.979,0.507,4.207,0.573,6.33c0.254,8.323-1.468,16.425-2.849,24.568
			c-0.618,3.641-0.95,7.329-1.422,10.994c-0.127,0.985-0.154,2.013-0.461,2.942c-1.421,4.3-3.263,8.492-4.306,12.877
			c-1.082,4.547-1.806,9.255-1.983,13.92c-0.234,6.152-0.953,12.111-2.592,18.085c-1.42,5.177-1.809,10.635-2.666,15.967
			c-0.18,1.122-0.42,2.234-0.628,3.353c-0.648,3.491-1.295,6.982-1.938,10.475c-0.181,0.979-0.196,2.021-0.552,2.93
			c-1.446,3.69-3.025,7.328-4.495,11.009c-0.892,2.234-1.558,4.563-2.525,6.761c-2.663,6.05-5.553,12.001-8.112,18.093
			c-1.641,3.906-2.805,8.011-4.273,11.993c-1.866,5.062-3.791,10.102-5.752,15.127c-1.699,4.35-3.66,8.606-5.184,13.015
			c-1.615,4.67-2.834,9.476-4.266,14.21c-0.401,1.326-0.809,2.68-1.449,3.896c-1.658,3.151-3.701,6.136-3.721,9.898
			c-0.001,0.281-0.041,0.58-0.141,0.842c-1.978,5.17-3.965,10.336-5.956,15.5c-0.358,0.931-0.905,1.818-1.088,2.779
			c-1.188,6.22-4.019,11.801-6.603,17.487c-0.458,1.007-0.76,2.218-0.69,3.306c0.19,2.942-0.725,5.55-1.685,8.267
			c-1.46,4.132-2.483,8.419-3.692,12.64c-70.585,0-141.17,0-211.768,0c0-426.932,0-853.865,0-1280.883
			c306.848,0,613.707,0,920.846,0c0,1.524,0,3.151,0,4.778c0,424.083,0.001,848.166-0.053,1272.249
			C1101.663,1278.739,1102.651,1280.392,1100.858,1281.342z"/>
	</g>
</g>
<g id="Layer_2">
	<g>
		<path fill-rule="evenodd" clip-rule="evenodd" fill="#FF1B21" d="M889.08,1283.104c-155.747,0-311.495,0-467.242,0
			c-1.782-0.238-3.565-0.684-5.348-0.685c-76.161-0.035-152.321-0.028-228.481-0.039c-1.801,0-3.603-0.136-5.288-0.204
			c-0.275-0.825-0.49-1.213-0.525-1.616c-0.938-10.835,0.975-21.557,1.324-32.342c0.101-3.12,0.357-6.236,0.608-9.349
			c0.113-1.399,0.011-2.999,0.658-4.139c1.786-3.149,2.17-6.487,1.861-9.931c-0.372-4.149,0.679-7.755,2.89-11.297
			c2.02-3.236,3.526-6.799,3.178-10.853c-0.095-1.099,0.319-2.237,0.468-3.362c0.802-6.068,3.938-11.226,6.431-16.642
			c1.415-3.073,2.417-6.354,4.019-9.318c1.744-3.225,1.389-6.593,1.58-9.979c0.085-1.514,0.655-3.006,1.051-4.495
			c0.758-2.851,1.46-5.72,2.342-8.533c1.836-5.858,0.998-12.511,5.256-17.663c0.418-0.507,0.508-1.31,0.675-1.993
			c1.163-4.745,0.988-9.937,4.694-13.836c0.354-0.372,0.33-1.079,0.558-1.597c0.857-1.952,1.405-4.166,2.701-5.771
			c2.058-2.548,2.313-5.277,2.419-8.35c0.28-8.186,2.966-12.612,6.466-21.612c1.037-0.722,0.146-1.678,1.125-2.5
			c2.467-2.072,2.448-8.024,5.5-10.5c0-4.411,6.415-5.759,6.584-11.025c0.067-2.085,0.399-4.313,1.246-6.19
			c1.56-3.46,2.735-7.168,5.858-9.81c1.088-0.92,1.435-2.727,2.091-4.143c0.473-1.021,0.736-2.175,1.365-3.08
			c7.134-10.271,14.24-20.562,21.525-30.724c3.982-5.556,8.32-10.854,12.438-16.314c1.705-2.261,3.548-4.491,4.799-6.999
			c1.669-3.347,3.371-6.562,6.247-9.056c0.958-0.83,1.64-1.97,2.539-2.879c4.502-4.553,8.723-9.45,13.627-13.523
			c7.819-6.496,14.645-13.885,21.399-21.41c3.602-4.015,7.606-7.669,11.44-11.475c1.412-1.401,2.918-2.713,4.274-4.165
			c6.4-6.854,12.523-13.99,19.249-20.504c3.076-2.979,6.139-5.872,8.732-9.286c1.02-1.344,2.402-2.415,3.631-3.598
			c1.333-1.282,2.761-2.478,4.01-3.839c5.282-5.764,10.514-11.572,15.763-17.367c0.955-1.055,2.003-2.044,2.834-3.19
			c4.086-5.643,8.081-11.352,12.175-16.988c2.691-3.707,5.161-7.522,6.579-11.916c2.509-7.774,7.496-13.601,14.176-18.092
			c1.533-1.03,2.537-2.341,2.452-4.219c-0.288-6.319,2.849-11.831,4.288-17.729c2.118-8.682,5.131-17.146,7.84-25.68
			c2.753-8.67,5.645-17.296,8.377-25.973c0.852-2.704,1.5-5.489,1.993-8.281c0.181-1.022-0.1-2.316-0.618-3.234
			c-1.115-1.977-2.148-4.287-3.875-5.577c-5.322-3.975-5.808-10.094-6.784-15.612c-1.051-5.944-0.179-12.202-0.719-18.271
			c-0.431-4.846,0.656-10.437-4.642-13.732c-0.225-0.14-0.369-0.433-0.511-0.678c-2.07-3.556-4.108-7.131-6.208-10.669
			c-1.654-2.786-2.997-5.885-5.157-8.215c-4.602-4.964-9.945-9.255-14.42-14.319c-4.021-4.55-7.866-9.334-10.367-15.059
			c-1.217-2.785-2.496-5.745-5.382-7.496c-0.616-0.374-0.94-1.359-1.223-2.128c-1.416-3.842-2.203-7.962-5.694-10.774
			c-0.741-0.597-0.84-2.042-1.142-3.122c-2.401-8.58-4.408-17.099-11.244-23.878c-4.242-4.206-7.165-9.914-9.978-15.313
			c-1.355-2.602-2.196-5.552-4.087-7.864c-2.678-3.276-4.239-6.875-5.25-11.027c-0.993-4.076-2.823-8.073-4.958-11.71
			c-2.125-3.62-4.041-7.527-7.591-10.179c-0.876-0.654-1.469-1.738-2.067-2.702c-3.624-5.831-6.258-12.065-7.75-18.791
			c-0.261-1.175-0.914-2.489-1.802-3.257c-2.402-2.074-4.077-4.309-3.628-7.703c0.082-0.619-0.426-1.324-0.686-1.979
			c-1.492-3.76-3.66-7.225-3.097-11.68c0.282-2.228-0.207-4.856-2.525-6.498c-0.618-0.437-0.936-1.362-1.275-2.115
			c-0.805-1.783-1.503-3.613-2.317-5.391c-0.53-1.156-1.465-2.19-1.742-3.389c-1.627-7.042-1.316-14.16,0.121-21.146
			c0.75-3.643,0.267-6.688-1.61-9.758c-2.674-4.376-5.16-8.868-7.842-13.239c-3.616-5.894-5.611-12.091-4.436-19.111
			c0.563-3.36,0.844-6.772,1.131-10.17c0.08-0.944,0.057-2.228-0.493-2.832c-1.679-1.844-1.411-3.88-1.218-6.029
			c0.292-3.266,0.162-6.6,0.759-9.802c0.875-4.683-2.338-6.881-4.911-9.721c-1.989-2.197-4.126-1.816-6.602-1.723
			c-2.619,0.099-5.443,0.519-7.818-1.314c-1.945-1.501-3.932-2.95-6.32-4.736c0.45-0.439,0.967-1.378,1.641-1.507
			c1.229-0.236,2.55,0.056,3.832,0.041c2.668-0.031,3.362-0.534,3.552-3.138c0.643-8.774,1.698-17.424,4.062-25.981
			c1.012-3.663,2.852-6.708,4.34-10.016c1.966-4.37,4.311-8.581,4.65-13.515c0.186-2.7-0.123-5.68,0.938-8.012
			c1.364-2.998,1.481-6.016,1.933-9.083c0.374-2.539,0.145-4.789-1.82-6.686c-1.494-1.442-1.616-3.174-0.915-5.125
			c0.663-1.845,1.166-3.764,1.561-5.687c0.37-1.802,1.247-2.716,3.151-2.813c1.375-0.07,2.884-0.191,4.066-0.804
			c2.127-1.103,4.099-2.529,6.053-3.936c2.771-1.995,5.504-2.064,8.327-0.17c0.637,0.427,1.331,0.771,2.435,1.402
			c0.216-2.026,0.412-3.549,0.535-5.078c0.251-3.127,0.287-6.284,0.765-9.375c0.244-1.58,0.945-3.303,1.972-4.507
			c2.714-3.184,5.032-6.513,5.956-10.91c-1.812-0.986-3.026-2.494-2.776-4.997c0.083-0.835-0.565-1.964-1.222-2.611
			c-1.941-1.909-2.108-4.152-1.972-6.685c0.319-5.947,0.195-11.925,0.7-17.852c0.433-5.071,0.818-10.319,2.437-15.076
			c2.275-6.686,5.386-13.097,7.011-20.022c1.55-6.601,6.745-10.773,10.654-15.738c1.689-2.146,2.9-4.041,3-6.747
			c0.04-1.07,0.319-2.37,0.983-3.136c2.287-2.637,9.51-3.037,12.208-0.739c2.379,2.026,4.562,4.284,6.954,6.293
			c1.167,0.98,2.566,1.724,3.942,2.41c3.8,1.894,7.896,0.112,11.802,0.848c2.392,0.451,4.13-0.74,5.601-2.421
			c3.352-3.833,6.683-7.684,9.995-11.551c0.454-0.529,0.954-1.152,1.086-1.802c0.752-3.697,3.497-5.262,6.609-6.622
			c2.335-1.021,4.619-2.22,6.757-3.599c0.831-0.536,1.612-1.743,1.712-2.717c0.509-4.925,3.274-8.019,7.636-9.819
			c3.42-1.412,7.044-2.368,10.364-3.968c2.622-1.263,4.63-0.979,6.532,0.999c1.264,1.315,2.522,1.328,4.234,0.752
			c2.397-0.806,4.934-1.326,7.452-1.622c5.365-0.629,11.416,0.647,14.47-5.778c0.225-0.472,0.813-0.79,1.269-1.13
			c2.038-1.522,3.906-3.455,6.182-4.426c2.682-1.144,5.699-1.75,8.617-1.966c1.099-0.082,2.328,1.582,3.508,2.458
			c3.194-0.642,6.691-0.729,8.544-4.305c0.304-0.586,1.572-0.601,2.27-1.067c4.038-2.696,9.296-2.438,13.179-5.475
			c1.423-1.113,2.738-2.377,4.226-3.394c4.798-3.279,9.68-6.435,14.479-9.714c3.916-2.676,3.88-2.72,7.953-0.039
			c0.209,0.137,0.55,0.074,1.092,0.132c3.216-1.908,6.576-3.99,10.031-5.898c1.086-0.6,2.428-1.004,3.66-1.022
			c2.627-0.04,4.503-1.367,6.497-2.84c4.688-3.464,9.508-6.751,14.322-10.04c0.667-0.455,1.61-0.495,2.416-0.757
			c6.071-1.974,12.287-3.603,18.149-6.072c3.318-1.398,6.948-1.973,10.012-4.399c3.257-2.579,6.818-5.257,11.477-5.173
			c0.776,0.014,1.66-0.489,2.329-0.978c2.552-1.868,5.458-2.863,8.385-3.976c6.131-2.333,12.136-4.711,18.928-4.301
			c4.957,0.3,10.003-0.426,14.907,0.162c3.989,0.478,7.763,2.611,12.002,1.702c0.344-0.074,0.846,0.212,1.164,0.466
			c4.123,3.291,8.331,1.727,12.562,0.289c3.626-1.232,7.215-2.64,10.924-3.539c6.586-1.594,13.204-3.225,19.904-4.105
			c3.18-0.418,4.962-1.575,6.132-4.662c21.607,1.557,43.186,3.113,64.569,4.654c0.313,1.458,0.277,2.7,0.822,3.583
			c1.708,2.763,3.368,5.639,5.565,7.986c1.6,1.71,2.203,3.088,1.348,5.246c-0.354,0.894-0.365,1.97-0.343,2.958
			c0.06,2.547,1.106,3.343,3.747,3.482c7.667,0.405,15.328,0.912,22.991,1.394c0.564,0.036,1.118,0.235,1.683,0.284
			c2.524,0.22,5.056,0.371,7.575,0.628c1.662,0.17,3.484,0.111,4.927,0.8c3.058,1.461,5.823,3.536,8.886,4.983
			c1.847,0.873,4.031,1.454,6.059,1.435c4.474-0.041,8.726,0.649,12.83,2.392c1.173,0.499,2.397,1.38,3.558,1.319
			c4.722-0.248,8.824,1.999,13.235,2.952c2.084,0.45,4.119,1.524,6.188,1.555c4.029,0.059,7.376,1.907,10.872,3.393
			c5.494,2.336,10.859,4.994,16.421,7.152c5.521,2.142,10.628,4.662,14.26,9.59c0.882,1.197,2.207,2.423,3.568,2.824
			c1.856,0.547,2.955,1.527,3.751,3.137c0.96,1.939,2.482,2.944,4.702,3.196c1.164,0.132,2.571,0.65,3.318,1.486
			c3.022,3.379,5.788,6.986,8.74,10.432c1.196,1.396,1.791,2.869,1.556,4.689c-0.289,2.226-0.555,4.454-0.854,6.874
			c3.833,2.328,7.5,4.77,9.248,9.124c0.241,0.601,0.934,1.076,1.509,1.476c3.096,2.156,5.469,4.92,7.467,8.119
			c2.1,3.361,2.125,3.223-0.11,6.626c-0.69,1.052-1.402,2.965-0.918,3.766c2.381,3.934,3.34,8.762,7.441,11.667
			c1.714,1.213,3.101,2.944,4.461,4.585c1.759,2.122,3.616,3.221,6.623,2.801c4.066-0.568,5.918,2.076,4.14,5.78
			c-1.014,2.112-0.923,3.723,0.406,5.515c0.929,1.251,1.815,2.567,2.479,3.969c0.443,0.935,0.926,2.268,0.581,3.076
			c-0.83,1.941-0.087,3.32,0.956,4.724c3.487,4.689,5.771,9.986,8.01,15.338c2.962,7.079,5.576,14.245,7.523,21.687
			c1.543,5.896,3.068,11.839,6.405,17.126c1.869,2.96,2.517,6.421,2.089,9.882c-0.812,6.569,1.485,12.646,2.834,18.838
			c1.146,5.261,3.371,10.295,2.563,15.875c-0.116,0.804,0.065,1.703,0.306,2.498c1.793,5.902,1.206,8.586-3.588,12.241
			c-2.744,2.092-4.676,4.456-5.473,7.802c-0.296,1.241-0.612,2.576-1.314,3.596c-0.934,1.357-2.06,3.082-3.453,3.509
			c-2.262,0.693-3.318,1.938-3.785,4.023c-0.458,2.044-1.769,2.774-3.775,2.565c-0.81-0.084-1.635-0.014-2.439-0.014
			c-0.439,1.359-0.591,2.542-1.162,3.464c-1.735,2.806-1.608,5.543-0.491,8.556c1.845,4.973,2.636,10.157,2.491,15.491
			c-0.074,2.696-0.085,5.428,0.279,8.089c0.192,1.407,1.121,2.786,1.967,4.005c0.512,0.738,1.502,1.146,2.253,1.685
			c-0.271,3.219-0.362,6.226-0.833,9.172c-0.285,1.793-1.204,3.479-1.735,5.244c-0.191,0.635-0.239,1.399-0.087,2.041
			c1.769,7.45,1.307,14.947,0.614,22.462c-0.284,3.094-0.415,6.203-0.626,9.468c2.101,0.658,4.499,0.655,4.39,3.452
			c-0.133,3.426-0.299,6.628-3.073,9.414c-4.277,4.296-4.087,6.67-0.225,11.392c3.516,4.298,6.904,8.704,10.502,12.931
			c5.262,6.185,10.599,12.283,14.36,19.581c1.03,1.999,3.191,3.541,3.806,5.599c0.973,3.259,2.831,5.849,4.653,8.549
			c0.634,0.94,1.158,1.956,1.716,2.946c1.028,1.824,1.914,3.742,3.092,5.463c2.326,3.399,5.218,6.476,7.123,10.083
			c2.172,4.111,5.139,7.489,8.082,10.946c5.038,5.916,9.064,12.427,11.164,19.942c2.246,8.042,1.071,15.867-4.348,22.129
			c-7.945,9.179-18.337,14.615-30.216,17.349c-6.718,1.545-11.942,5.417-14.552,12c-1.981,4.999-3.266,10.223-3.649,15.638
			c-0.746,10.527-1.748,21.04-2.238,31.577c-0.188,4.035-1.384,6.915-4.555,9.497c-5.412,4.409-5.209,6.012-0.062,10.773
			c4.342,4.016,7.617,8.712,9.539,14.438c1.667,4.968,0.7,8.798-3.144,12.285c-1.622,1.472-3.043,3.416-3.906,5.424
			c-2.391,5.562-5.069,11.038-6.298,17.043c-0.134,0.658-0.583,1.307-1.03,1.838c-4.127,4.899-3.517,10.936-2.554,16.277
			c0.916,5.086,1.489,10.079,1.307,15.153c-0.216,5.98-1.056,11.939-1.264,17.92c-0.266,7.681-2.52,14.816-5.588,21.702
			c-2.19,4.918-4.971,9.439-9.509,12.825c-4.674,3.488-8.896,7.581-13.329,11.395c-0.861,0.742-1.695,1.58-2.686,2.102
			c-7.444,3.923-15.479,6.244-23.565,8.347c-2.308,0.6-4.814,0.386-7.182,0.809c-6.294,1.125-12.626,2.138-18.822,3.68
			c-6.096,1.516-12.336,1.634-18.482,2.596c-8.555,1.338-17.224,1.969-25.754,3.432c-6.246,1.072-12.83,1.094-18.501,4.605
			c-0.342,0.212-0.834,0.169-1.244,0.285c-3.127,0.89-6.323,1.598-9.363,2.723c-9.653,3.573-16.432,10.351-20.97,19.461
			c-1.646,3.308-3.353,6.619-4.59,10.086c-0.889,2.491-1.272,5.225-1.482,7.882c-0.515,6.501-0.798,13.02-1.176,19.531
			c-0.009,0.142-0.048,0.28-0.071,0.422c-0.627,3.732-8.563,22.384-10.952,25.304c-4.971,6.075-6.473,13.504-8.146,20.829
			c-0.386,1.689,0.293,3.631,0.521,5.451c0.477,3.792,1.481,7.601,1.341,11.367c-0.169,4.509-1.169,9.009-2.062,13.463
			c-0.978,4.879-2.303,9.688-3.353,14.554c-0.417,1.932-0.036,4.155-0.842,5.855c-1.232,2.601-1.294,5.193-1.31,7.897
			c-0.006,0.988-0.248,1.973-0.333,2.963c-0.475,5.479-2.354,10.898-0.691,16.477c0.153,0.516,0.086,1.146-0.039,1.686
			c-1.586,6.843-0.201,13.587,0.695,20.334c0.599,4.506,1.308,9.003,2.171,13.464c0.937,4.834,0.809,9.838,3.237,14.451
			c1.476,2.804,2.252,6.164,2.565,9.351c0.611,6.211,2.591,12.292,1.882,18.639c-0.076,0.677,0.191,1.402,0.346,2.095
			c0.861,3.868,1.892,7.706,2.575,11.605c1.321,7.535,2.46,15.104,3.653,22.66c0.288,1.82,0.37,3.683,0.778,5.473
			c0.438,1.918,1.054,3.811,1.761,5.649c1.621,4.218,3.364,8.388,5.021,12.592c1.33,3.376,1.617,7.186,4.403,9.961
			c0.65,0.647,0.827,1.785,1.183,2.712c1.563,4.079,3.088,8.172,4.676,12.241c1.851,4.742,3.805,9.444,5.613,14.203
			c1.26,3.315,2.219,6.748,3.547,10.034c1.905,4.714,4.334,9.234,5.979,14.03c2.414,7.041,2.891,14.737,7.214,21.142
			c0.305,0.451,0.485,1.078,0.489,1.626c0.026,3.125,1.522,5.724,2.859,8.394c0.376,0.75,0.582,1.591,0.838,2.397
			c1.843,5.811,3.462,11.704,5.577,17.414c2.242,6.054,6.223,11.537,5.691,18.449c-0.03,0.393,0.183,0.839,0.378,1.21
			C886.828,1272.556,888.083,1277.789,889.08,1283.104z"/>
		<path fill-rule="evenodd" clip-rule="evenodd" fill="none" d="M889.08,1283.104c-0.997-5.315-2.252-10.549-4.802-15.382
			c-0.195-0.371-0.408-0.817-0.378-1.21c0.531-6.912-3.449-12.396-5.691-18.449c-2.115-5.71-3.734-11.604-5.577-17.414
			c-0.256-0.807-0.462-1.647-0.838-2.397c-1.337-2.67-2.833-5.269-2.859-8.394c-0.004-0.548-0.185-1.175-0.489-1.626
			c-4.323-6.404-4.8-14.101-7.214-21.142c-1.646-4.796-4.074-9.316-5.979-14.03c-1.328-3.286-2.287-6.719-3.547-10.034
			c-1.809-4.759-3.763-9.461-5.613-14.203c-1.588-4.069-3.112-8.162-4.676-12.241c-0.355-0.927-0.532-2.064-1.183-2.712
			c-2.786-2.775-3.073-6.585-4.403-9.961c-1.657-4.204-3.4-8.374-5.021-12.592c-0.707-1.839-1.322-3.731-1.761-5.649
			c-0.408-1.79-0.49-3.652-0.778-5.473c-1.193-7.557-2.332-15.125-3.653-22.66c-0.684-3.899-1.714-7.737-2.575-11.605
			c-0.154-0.692-0.422-1.418-0.346-2.095c0.709-6.347-1.271-12.428-1.882-18.639c-0.313-3.187-1.09-6.547-2.565-9.351
			c-2.429-4.613-2.301-9.617-3.237-14.451c-0.863-4.461-1.572-8.958-2.171-13.464c-0.896-6.747-2.281-13.491-0.695-20.334
			c0.125-0.54,0.192-1.17,0.039-1.686c-1.662-5.578,0.217-10.997,0.691-16.477c0.085-0.99,0.327-1.975,0.333-2.963
			c0.016-2.704,0.077-5.297,1.31-7.897c0.806-1.7,0.425-3.924,0.842-5.855c1.05-4.866,2.375-9.675,3.353-14.554
			c0.893-4.454,1.893-8.954,2.062-13.463c0.141-3.767-0.864-7.575-1.341-11.367c-0.229-1.82-0.907-3.762-0.521-5.451
			c1.674-7.325,3.176-14.754,8.146-20.829c2.39-2.92,10.325-21.571,10.952-25.304c0.023-0.142,0.063-0.28,0.071-0.422
			c0.378-6.512,0.661-13.03,1.176-19.531c0.21-2.657,0.594-5.391,1.482-7.882c1.237-3.467,2.943-6.778,4.59-10.086
			c4.538-9.11,11.316-15.888,20.97-19.461c3.04-1.125,6.236-1.833,9.363-2.723c0.41-0.116,0.902-0.073,1.244-0.285
			c5.671-3.512,12.255-3.533,18.501-4.605c8.53-1.463,17.199-2.094,25.754-3.432c6.146-0.962,12.387-1.08,18.482-2.596
			c6.196-1.542,12.528-2.555,18.822-3.68c2.367-0.423,4.874-0.209,7.182-0.809c8.087-2.103,16.121-4.424,23.565-8.347
			c0.99-0.521,1.824-1.359,2.686-2.102c4.433-3.813,8.655-7.906,13.329-11.395c4.538-3.386,7.318-7.907,9.509-12.825
			c3.068-6.886,5.322-14.021,5.588-21.702c0.208-5.98,1.048-11.939,1.264-17.92c0.183-5.074-0.391-10.067-1.307-15.153
			c-0.963-5.342-1.573-11.378,2.554-16.277c0.447-0.531,0.896-1.18,1.03-1.838c1.229-6.005,3.907-11.481,6.298-17.043
			c0.863-2.008,2.284-3.952,3.906-5.424c3.844-3.487,4.811-7.317,3.144-12.285c-1.922-5.727-5.197-10.423-9.539-14.438
			c-5.147-4.761-5.351-6.364,0.062-10.773c3.171-2.583,4.367-5.462,4.555-9.497c0.49-10.538,1.492-21.05,2.238-31.577
			c0.384-5.415,1.668-10.639,3.649-15.638c2.609-6.583,7.834-10.456,14.552-12c11.879-2.734,22.271-8.17,30.216-17.349
			c5.419-6.262,6.594-14.088,4.348-22.129c-2.1-7.515-6.126-14.026-11.164-19.942c-2.943-3.458-5.91-6.835-8.082-10.946
			c-1.905-3.607-4.797-6.684-7.123-10.083c-1.178-1.721-2.063-3.639-3.092-5.463c-0.558-0.99-1.082-2.006-1.716-2.946
			c-1.822-2.7-3.681-5.29-4.653-8.549c-0.614-2.059-2.775-3.6-3.806-5.599c-3.762-7.298-9.099-13.396-14.36-19.581
			c-3.598-4.228-6.986-8.633-10.502-12.931c-3.862-4.721-4.053-7.096,0.225-11.392c2.774-2.786,2.94-5.987,3.073-9.414
			c0.109-2.797-2.289-2.794-4.39-3.452c0.211-3.266,0.342-6.374,0.626-9.468c0.692-7.515,1.154-15.012-0.614-22.462
			c-0.152-0.642-0.104-1.406,0.087-2.041c0.531-1.765,1.45-3.451,1.735-5.244c0.471-2.947,0.563-5.954,0.833-9.172
			c-0.751-0.539-1.741-0.947-2.253-1.685c-0.846-1.219-1.774-2.598-1.967-4.005c-0.364-2.661-0.354-5.393-0.279-8.089
			c0.145-5.333-0.646-10.518-2.491-15.491c-1.117-3.013-1.244-5.75,0.491-8.556c0.571-0.922,0.723-2.104,1.162-3.464
			c0.805,0,1.63-0.07,2.439,0.014c2.007,0.208,3.317-0.521,3.775-2.565c0.467-2.086,1.523-3.33,3.785-4.023
			c1.394-0.427,2.52-2.152,3.453-3.509c0.702-1.02,1.019-2.355,1.314-3.596c0.797-3.346,2.729-5.71,5.473-7.802
			c4.794-3.655,5.381-6.339,3.588-12.241c-0.24-0.795-0.422-1.694-0.306-2.498c0.809-5.58-1.417-10.614-2.563-15.875
			c-1.349-6.192-3.646-12.27-2.834-18.838c0.428-3.461-0.22-6.921-2.089-9.882c-3.337-5.287-4.862-11.23-6.405-17.126
			c-1.947-7.442-4.562-14.607-7.523-21.687c-2.239-5.352-4.522-10.648-8.01-15.338c-1.043-1.404-1.786-2.783-0.956-4.724
			c0.345-0.809-0.138-2.141-0.581-3.076c-0.664-1.401-1.551-2.718-2.479-3.969c-1.329-1.792-1.42-3.403-0.406-5.515
			c1.778-3.704-0.073-6.348-4.14-5.78c-3.007,0.42-4.864-0.679-6.623-2.801c-1.36-1.641-2.747-3.372-4.461-4.585
			c-4.102-2.904-5.061-7.733-7.441-11.667c-0.484-0.801,0.228-2.714,0.918-3.766c2.235-3.403,2.21-3.265,0.11-6.626
			c-1.998-3.198-4.371-5.962-7.467-8.119c-0.575-0.4-1.268-0.875-1.509-1.476c-1.748-4.354-5.415-6.796-9.248-9.124
			c0.3-2.42,0.565-4.648,0.854-6.874c0.235-1.82-0.359-3.293-1.556-4.689c-2.952-3.445-5.718-7.053-8.74-10.432
			c-0.747-0.836-2.154-1.354-3.318-1.486c-2.22-0.252-3.742-1.257-4.702-3.196c-0.796-1.61-1.895-2.59-3.751-3.137
			c-1.361-0.401-2.687-1.627-3.568-2.824c-3.632-4.929-8.739-7.448-14.26-9.59c-5.562-2.158-10.927-4.816-16.421-7.152
			c-3.496-1.486-6.843-3.333-10.872-3.393c-2.068-0.031-4.104-1.104-6.188-1.555c-4.411-0.954-8.514-3.2-13.235-2.952
			c-1.16,0.061-2.385-0.821-3.558-1.319c-4.104-1.743-8.356-2.432-12.83-2.392c-2.027,0.019-4.212-0.563-6.059-1.435
			c-3.063-1.447-5.828-3.521-8.886-4.983c-1.442-0.689-3.265-0.63-4.927-0.8c-2.52-0.257-5.051-0.409-7.575-0.628
			c-0.564-0.049-1.118-0.248-1.683-0.284c-7.663-0.482-15.324-0.989-22.991-1.394c-2.641-0.14-3.688-0.935-3.747-3.482
			c-0.022-0.988-0.011-2.064,0.343-2.958c0.855-2.158,0.252-3.536-1.348-5.246c-2.197-2.347-3.857-5.224-5.565-7.986
			c-0.545-0.883-0.51-2.125-0.822-3.583c-21.384-1.542-42.962-3.097-64.569-4.654c-1.17,3.086-2.952,4.243-6.132,4.662
			c-6.7,0.881-13.318,2.511-19.904,4.105c-3.709,0.898-7.298,2.307-10.924,3.539c-4.23,1.438-8.438,3.001-12.562-0.289
			c-0.318-0.254-0.82-0.54-1.164-0.466c-4.239,0.909-8.013-1.224-12.002-1.702c-4.904-0.588-9.95,0.138-14.907-0.162
			c-6.792-0.411-12.797,1.967-18.928,4.301c-2.927,1.113-5.833,2.108-8.385,3.976c-0.669,0.489-1.553,0.992-2.329,0.978
			c-4.659-0.084-8.22,2.594-11.477,5.173c-3.064,2.426-6.694,3.001-10.012,4.399c-5.862,2.47-12.078,4.098-18.149,6.072
			c-0.806,0.262-1.749,0.303-2.416,0.757c-4.814,3.289-9.635,6.575-14.322,10.04c-1.994,1.474-3.87,2.801-6.497,2.84
			c-1.232,0.018-2.574,0.423-3.66,1.022c-3.456,1.908-6.815,3.991-10.031,5.898c-0.542-0.059-0.883,0.005-1.092-0.132
			c-4.073-2.681-4.037-2.637-7.953,0.039c-4.798,3.279-9.68,6.436-14.479,9.714c-1.487,1.016-2.802,2.281-4.226,3.394
			c-3.883,3.037-9.141,2.779-13.179,5.475c-0.698,0.466-1.966,0.481-2.27,1.067c-1.853,3.576-5.35,3.663-8.544,4.305
			c-1.18-0.876-2.409-2.54-3.508-2.458c-2.918,0.216-5.935,0.822-8.617,1.966c-2.276,0.971-4.145,2.904-6.182,4.426
			c-0.456,0.34-1.044,0.658-1.269,1.13c-3.054,6.425-9.104,5.148-14.47,5.778c-2.518,0.295-5.055,0.815-7.452,1.622
			c-1.712,0.576-2.97,0.563-4.234-0.752c-1.902-1.977-3.911-2.261-6.532-0.999c-3.32,1.6-6.944,2.557-10.364,3.968
			c-4.362,1.8-7.126,4.894-7.636,9.819c-0.101,0.974-0.881,2.181-1.712,2.717c-2.139,1.379-4.422,2.578-6.757,3.599
			c-3.112,1.36-5.856,2.925-6.609,6.622c-0.133,0.65-0.633,1.272-1.086,1.802c-3.312,3.867-6.643,7.718-9.995,11.551
			c-1.471,1.681-3.208,2.872-5.601,2.421c-3.907-0.735-8.002,1.046-11.802-0.848c-1.376-0.686-2.775-1.429-3.942-2.41
			c-2.392-2.01-4.575-4.267-6.954-6.293c-2.699-2.298-9.922-1.898-12.208,0.739c-0.664,0.767-0.943,2.066-0.983,3.136
			c-0.101,2.706-1.311,4.6-3,6.747c-3.909,4.965-9.104,9.137-10.654,15.738c-1.625,6.926-4.736,13.337-7.011,20.022
			c-1.619,4.757-2.004,10.004-2.437,15.076c-0.505,5.927-0.381,11.905-0.7,17.852c-0.136,2.533,0.031,4.776,1.972,6.685
			c0.657,0.646,1.305,1.776,1.222,2.611c-0.25,2.503,0.965,4.011,2.776,4.997c-0.924,4.396-3.242,7.726-5.956,10.91
			c-1.027,1.205-1.728,2.927-1.972,4.507c-0.478,3.09-0.514,6.248-0.765,9.375c-0.123,1.529-0.318,3.052-0.535,5.078
			c-1.104-0.632-1.798-0.975-2.435-1.402c-2.823-1.894-5.557-1.825-8.327,0.17c-1.954,1.406-3.926,2.833-6.053,3.936
			c-1.182,0.613-2.691,0.734-4.066,0.804c-1.904,0.096-2.781,1.011-3.151,2.813c-0.395,1.923-0.897,3.841-1.561,5.687
			c-0.701,1.95-0.579,3.682,0.915,5.125c1.964,1.897,2.193,4.147,1.82,6.686c-0.452,3.067-0.569,6.085-1.933,9.083
			c-1.061,2.332-0.752,5.312-0.938,8.012c-0.339,4.935-2.684,9.145-4.65,13.515c-1.488,3.308-3.328,6.354-4.34,10.016
			c-2.364,8.557-3.418,17.207-4.062,25.981c-0.19,2.604-0.884,3.107-3.552,3.138c-1.282,0.015-2.603-0.277-3.832-0.041
			c-0.673,0.129-1.191,1.068-1.641,1.507c2.389,1.786,4.375,3.235,6.32,4.736c2.375,1.833,5.199,1.413,7.818,1.314
			c2.475-0.093,4.612-0.474,6.602,1.723c2.572,2.84,5.785,5.038,4.911,9.721c-0.597,3.203-0.467,6.536-0.759,9.802
			c-0.193,2.149-0.461,4.185,1.218,6.029c0.55,0.604,0.573,1.888,0.493,2.832c-0.287,3.398-0.568,6.811-1.131,10.17
			c-1.175,7.02,0.819,13.218,4.436,19.111c2.682,4.371,5.167,8.863,7.842,13.239c1.876,3.07,2.359,6.115,1.61,9.758
			c-1.437,6.986-1.748,14.104-0.121,21.146c0.277,1.199,1.212,2.233,1.742,3.389c0.814,1.777,1.512,3.608,2.317,5.391
			c0.34,0.753,0.658,1.678,1.275,2.115c2.318,1.641,2.807,4.27,2.525,6.498c-0.563,4.455,1.605,7.92,3.097,11.68
			c0.26,0.655,0.768,1.36,0.686,1.979c-0.449,3.394,1.226,5.629,3.628,7.703c0.889,0.768,1.542,2.082,1.802,3.257
			c1.492,6.726,4.126,12.96,7.75,18.791c0.599,0.964,1.191,2.048,2.067,2.702c3.55,2.652,5.467,6.559,7.591,10.179
			c2.135,3.638,3.965,7.634,4.958,11.71c1.011,4.152,2.573,7.751,5.25,11.027c1.891,2.312,2.731,5.262,4.087,7.864
			c2.813,5.4,5.736,11.107,9.978,15.313c6.835,6.779,8.842,15.298,11.244,23.878c0.302,1.08,0.401,2.525,1.142,3.122
			c3.491,2.812,4.278,6.932,5.694,10.774c0.283,0.769,0.607,1.754,1.223,2.128c2.886,1.751,4.165,4.711,5.382,7.496
			c2.501,5.724,6.346,10.508,10.367,15.059c4.475,5.064,9.818,9.355,14.42,14.319c2.16,2.33,3.503,5.429,5.157,8.215
			c2.1,3.538,4.138,7.113,6.208,10.669c0.143,0.245,0.287,0.538,0.511,0.678c5.298,3.296,4.211,8.887,4.642,13.732
			c0.54,6.069-0.332,12.327,0.719,18.271c0.977,5.519,1.462,11.638,6.784,15.612c1.727,1.29,2.76,3.601,3.875,5.577
			c0.518,0.918,0.798,2.212,0.618,3.234c-0.494,2.792-1.142,5.577-1.993,8.281c-2.732,8.677-5.624,17.303-8.377,25.973
			c-2.708,8.533-5.722,16.998-7.84,25.68c-1.438,5.898-4.576,11.41-4.288,17.729c0.085,1.878-0.918,3.188-2.452,4.219
			c-6.68,4.491-11.667,10.317-14.176,18.092c-1.418,4.394-3.887,8.209-6.579,11.916c-4.094,5.637-8.088,11.346-12.175,16.988
			c-0.831,1.146-1.879,2.136-2.834,3.19c-5.249,5.795-10.48,11.604-15.763,17.367c-1.249,1.361-2.676,2.557-4.01,3.839
			c-1.229,1.183-2.611,2.254-3.631,3.598c-2.594,3.414-5.656,6.307-8.732,9.286c-6.726,6.514-12.849,13.65-19.249,20.504
			c-1.356,1.452-2.862,2.764-4.274,4.165c-3.833,3.806-7.838,7.46-11.44,11.475c-6.754,7.525-13.58,14.914-21.399,21.41
			c-4.904,4.073-9.125,8.971-13.627,13.523c-0.899,0.909-1.581,2.049-2.539,2.879c-2.876,2.494-4.577,5.709-6.247,9.056
			c-1.251,2.508-3.095,4.738-4.799,6.999c-4.118,5.46-8.456,10.759-12.438,16.314c-7.285,10.162-14.391,20.453-21.525,30.724
			c-0.629,0.905-0.893,2.06-1.365,3.08c-0.656,1.416-1.003,3.223-2.091,4.143c-3.124,2.642-4.299,6.35-5.858,9.81
			c-0.846,1.877-1.179,4.105-1.246,6.19c-0.169,5.267-0.056,10.543-0.056,14.954c-3.052,2.476-5.578,4.478-8.045,6.55
			c-0.979,0.822-1.716,1.962-2.753,2.684c-7.566,5.264-8.541,13.265-8.821,21.45c-0.105,3.072-0.361,5.802-2.419,8.35
			c-1.296,1.604-1.844,3.818-2.701,5.771c-0.228,0.518-0.204,1.225-0.558,1.597c-3.706,3.899-3.532,9.091-4.694,13.836
			c-0.167,0.684-0.257,1.486-0.675,1.993c-4.258,5.152-3.42,11.805-5.256,17.663c-0.881,2.813-1.584,5.683-2.342,8.533
			c-0.396,1.489-0.965,2.981-1.051,4.495c-0.191,3.387,0.164,6.755-1.58,9.979c-1.602,2.964-2.604,6.245-4.019,9.318
			c-2.494,5.416-5.629,10.573-6.431,16.642c-0.149,1.125-0.563,2.264-0.468,3.362c0.348,4.054-1.159,7.616-3.178,10.853
			c-2.211,3.542-3.261,7.147-2.89,11.297c0.309,3.443-0.075,6.781-1.861,9.931c-0.647,1.14-0.545,2.739-0.658,4.139
			c-0.251,3.112-0.508,6.229-0.608,9.349c-0.349,10.785-2.262,21.507-1.324,32.342c0.035,0.403,0.25,0.791,0.525,1.616
			c1.686,0.068,3.487,0.204,5.288,0.204c76.161,0.011,152.321,0.004,228.481,0.039c1.782,0.001,3.565,0.446,5.348,0.685
			c-80.146,0-160.294,0-240.454,0c0-426.11,0-852.222,0-1278.415c306.259,0,612.531,0,918.936,0c0,426.083,0,852.249,0,1278.415
			C1029.979,1283.104,959.529,1283.104,889.08,1283.104z"/>
	</g>
</g>
</svg>
